<?xml version="1.0" encoding="iso-8859-1"?>
<!-- Generator: Adobe Illustrator 19.0.0, SVG Export Plug-In . SVG Version: 6.00 Build 0)  -->
<svg version="1.1" id="Capa_1" xmlns="http://www.w3.org/2000/svg" xmlns:xlink="http://www.w3.org/1999/xlink" x="0px" y="0px"
	 viewBox="0 0 410.754 410.754" style="enable-background:new 0 0 410.754 410.754;" xml:space="preserve">
<path style="fill:#FFFFFF;" d="M215.478,198.825c-71.28,0-129.52-18.16-129.52-40.4c0-4.72,2.8-12,16-19.52l5.28-2.96l4.32,4.24
	c16,16,57.76,26.56,104,26.56s87.6-10.72,104-26.56l4.32-4.24l5.28,2.96c13.28,7.52,16,14.8,16,19.52c0,8-6.72,15.2-20,21.68
	l-1.2,0.56h-1.28l-1.04,0.96l-1.36,0.48C294.998,192.825,256.918,198.825,215.478,198.825L215.478,198.825z"/>
<path style="fill:#F79959;" d="M215.478,166.745c-60.88,0-110.48-18.16-110.48-40.4c0-17.84,31.04-33.36,77.2-38.56l4.64-0.48
	l14.88-0.72h13.92c60.72-0.64,110.32,17.52,110.32,39.76S276.358,166.745,215.478,166.745L215.478,166.745z"/>
<path style="fill:#FFFFFF;" d="M129.798,126.345c0-17.84,31.04-33.36,77.2-38.56l4.64-0.48l14.88-0.72h1.92c-4.16,0-8.4,0-12.72,0
	s-9.44,0-13.92,0l-14.88,0.72l-4.64,0.48c-46.16,5.2-77.2,20.72-77.2,38.56c0,22.32,49.52,40.4,110.48,40.4h12.4
	C172.758,164.265,129.798,147.145,129.798,126.345z"/>
<path style="fill:#6AC9EA;" d="M216.438,402.505c-26.586,0.044-53.068-3.317-78.8-10l-5.2-1.44l-24.8-209.84l12.08,4.16
	c31.11,9.414,63.503,13.895,96,13.28c31.876,0.56,63.653-3.729,94.24-12.72l12-4l-24.56,209.12l-5.2,1.44
	C267.514,399.253,242.028,402.617,216.438,402.505L216.438,402.505z"/>
<path style="fill:#FFFFFF;" d="M133.958,190.345l-14.48-4.88l-11.84-4.24l24.72,209.92l5.2,1.44c4.32,1.2,11.52,2.96,20.96,4.64
	L133.958,190.345z"/>
<path style="fill:#203D4C;" d="M333.158,132.265c0.485-1.936,0.727-3.924,0.72-5.92c0-31.44-61.04-48.4-118.48-48.4
	c-8,0-16.56,0-24.72,1.04l-43.68-59.68c-1.219-1.647-3.022-2.764-5.04-3.12l-73.44-16c-4.418-0.95-8.77,1.862-9.72,6.28
	s1.862,8.77,6.28,9.72l70.48,15.6l36.56,50c-41.28,6.24-75.44,21.68-75.44,45.2c0.013,1.999,0.282,3.989,0.8,5.92
	c-15.68,8.32-19.52,18.48-19.52,25.52c0,10.96,8,20.08,22,27.44l24,206.16c0.372,3.081,2.492,5.669,5.44,6.64
	c27.943,8.241,56.949,12.311,86.08,12.08c28.356,0.115,56.577-3.928,83.76-12c3.034-0.931,5.232-3.567,5.6-6.72l24-205.44
	c14.32-7.44,23.2-16.72,23.2-28.08C352.838,151.385,349.158,141.225,333.158,132.265L333.158,132.265z M183.158,95.705l25.92,35.36
	c2.829,3.394,7.873,3.853,11.267,1.024c3.099-2.583,3.79-7.068,1.613-10.464l-20-27.36h13.6c63.52,0,102.48,18.88,102.48,32.4
	s-38.96,32.4-102.48,32.4s-102.48-18.88-102.48-32.4C112.998,115.305,138.998,100.665,183.158,95.705L183.158,95.705z
	 M290.118,384.824c-49.311,12.845-101.089,12.845-150.4,0l-22.64-192c31.882,9.691,65.083,14.334,98.4,13.76
	c32.888,0.559,65.667-3.92,97.2-13.28L290.118,384.824z M321.318,173.224l-4.48,2.08c-32.493,11.61-66.871,17.036-101.36,16
	c-74.08-0.48-121.52-19.68-121.52-32.88c0-2.96,3.36-8,12.08-12.56c19.12,18.88,65.2,28.88,109.28,28.88s90.16-10,109.28-28.88
	c8.72,4.96,12.08,9.6,12.08,12.56C336.838,162.904,331.318,168.024,321.318,173.224L321.318,173.224z"/>
<g>
</g>
<g>
</g>
<g>
</g>
<g>
</g>
<g>
</g>
<g>
</g>
<g>
</g>
<g>
</g>
<g>
</g>
<g>
</g>
<g>
</g>
<g>
</g>
<g>
</g>
<g>
</g>
<g>
</g>
</svg>
