<svg height="496pt" viewBox="0 0 496 496" width="496pt" xmlns="http://www.w3.org/2000/svg"><path d="m432 421.679688-4.160156 17.28125c-6.960938 28.800781-32.640625 49.039062-62.238282 49.039062h-235.203124c-29.597657 0-55.277344-20.238281-62.238282-48.960938l-4.160156-17.359374c44 20.960937 110.078125 34.320312 184 34.320312s140-13.359375 184-34.320312zm0 0" fill="#ccd1d9"/><path d="m56 328v32c0 8.800781 7.199219 16 16 16h80c0 4.398438 1.761719 8.398438 4.71875 11.28125 2.882812 2.957031 6.882812 4.71875 11.28125 4.71875 8.800781 0 16-7.199219 16-16h32v32c0 4.398438 1.761719 8.398438 4.71875 11.28125 2.882812 2.957031 6.882812 4.71875 11.28125 4.71875 8.800781 0 16-7.199219 16-16v-32h176c8.800781 0 16-7.199219 16-16v-57.601562c30.160156 16 48 36 48 57.601562 0 23.519531-21.039062 44.960938-56 61.679688-44 20.960937-110.078125 34.320312-184 34.320312s-140-13.359375-184-34.320312c-34.960938-16.71875-56-38.160157-56-61.679688 0-21.601562 17.839844-41.601562 48-57.601562zm0 0" fill="#e6e9ed"/><path d="m440 328v32c0 8.800781-7.199219 16-16 16h-176v-32c0-8.800781 7.199219-16 16-16h32c0 4.398438 1.761719 8.398438 4.71875 11.28125 2.882812 2.957031 6.882812 4.71875 11.28125 4.71875 8.800781 0 16-7.199219 16-16zm0 0" fill="#cf9e76"/><path d="m440 302.398438v25.601562h-112v-48h32c0 4.398438 1.761719 8.398438 4.71875 11.28125 2.882812 2.957031 6.882812 4.71875 11.28125 4.71875 8.800781 0 16-7.199219 16-16h48zm0 0" fill="#fcd770"/><path d="m152 344v32h-80c-8.800781 0-16-7.199219-16-16v-32h80c8.800781 0 16 7.199219 16 16zm0 0" fill="#cf9e76"/><path d="m216 344v32h-32v-32c0-4.398438 1.761719-8.398438 4.71875-11.28125 2.882812-2.957031 6.882812-4.71875 11.28125-4.71875 8.800781 0 16 7.199219 16 16zm0 0" fill="#dfb28b"/><path d="m56 280c0 8.800781 7.199219 16 16 16 4.398438 0 8.398438-1.761719 11.28125-4.71875 2.957031-2.882812 4.71875-6.882812 4.71875-11.28125h208v48h-32c-8.800781 0-16 7.199219-16 16v64c0 8.800781-7.199219 16-16 16-4.398438 0-8.398438-1.761719-11.28125-4.71875-2.957031-2.882812-4.71875-6.882812-4.71875-11.28125v-64c0-8.800781-7.199219-16-16-16-4.398438 0-8.398438 1.761719-11.28125 4.71875-2.957031 2.882812-4.71875 6.882812-4.71875 11.28125v32c0 8.800781-7.199219 16-16 16-4.398438 0-8.398438-1.761719-11.28125-4.71875-2.957031-2.882812-4.71875-6.882812-4.71875-11.28125v-32c0-8.800781-7.199219-16-16-16h-80zm0 0" fill="#fcd770"/><path d="m440 232v48h-48v-32c0-8.800781 7.199219-16 16-16zm0 0" fill="#dfb28b"/><path d="m360 248v32h-32v-32c0-4.398438 1.761719-8.398438 4.71875-11.28125 2.882812-2.957031 6.882812-4.71875 11.28125-4.71875 8.800781 0 16 7.199219 16 16zm0 0" fill="#dfb28b"/><path d="m296 280h-208v-48h32v8c0 8.800781 7.199219 16 16 16 4.398438 0 8.398438-1.761719 11.28125-4.71875 2.957031-2.882812 4.71875-6.882812 4.71875-11.28125v-8h128c8.800781 0 16 7.199219 16 16zm0 0" fill="#dfb28b"/><path d="m440 184v48h-32c-8.800781 0-16 7.199219-16 16v32c0 8.800781-7.199219 16-16 16-4.398438 0-8.398438-1.761719-11.28125-4.71875-2.957031-2.882812-4.71875-6.882812-4.71875-11.28125v-32c0-8.800781-7.199219-16-16-16-4.398438 0-8.398438 1.761719-11.28125 4.71875-2.957031 2.882812-4.71875 6.882812-4.71875 11.28125v80c0 8.800781-7.199219 16-16 16-4.398438 0-8.398438-1.761719-11.28125-4.71875-2.957031-2.882812-4.71875-6.882812-4.71875-11.28125v-80c0-8.800781-7.199219-16-16-16h-128v-32c0-8.800781 7.199219-16 16-16zm0 0" fill="#fcd770"/><path d="m120 200v32h-32v-32c0-8.800781 7.199219-16 16-16 4.398438 0 8.398438 1.761719 11.28125 4.71875 2.957031 2.882812 4.71875 6.882812 4.71875 11.28125zm0 0" fill="#fcd770"/><path d="m440 168v16h-272c-8.800781 0-16 7.199219-16 16v40c0 4.398438-1.761719 8.398438-4.71875 11.28125-2.882812 2.957031-6.882812 4.71875-11.28125 4.71875-8.800781 0-16-7.199219-16-16v-40c0-4.398438-1.761719-8.398438-4.71875-11.28125-2.882812-2.957031-6.882812-4.71875-11.28125-4.71875-8.800781 0-16 7.199219-16 16v80c0 4.398438-1.761719 8.398438-4.71875 11.28125-2.882812 2.957031-6.882812 4.71875-11.28125 4.71875-8.800781 0-16-7.199219-16-16v-112c0-8.800781 7.199219-16 16-16h352c8.800781 0 16 7.199219 16 16zm0 0" fill="#e6e9ed"/><path d="m143.039062 25.28125c13.679688 13.679688 19.441407 31.757812 16.640626 47.359375-6.078126.878906-11.757813 2.640625-16.800782 5.28125-12.320312-5.523437-22.800781-1.761719-36.878906-15.761719-18.238281-18.238281-6.480469-30.398437-23.921875-48.398437 17.523437-10.640625 43.042969-6.402344 60.960937 11.519531zm0 0" fill="#d3a06c"/><path d="m142.878906 77.921875c-11.117187 5.679687-19.277344 15.117187-21.917968 26.078125-13.601563 0-28.160157-5.839844-39.601563-17.28125-20.480469-20.320312-23.199219-50.640625-6.160156-67.597656 2.082031-2.082032 4.402343-3.839844 6.878906-5.359375 17.441406 18 5.683594 30.160156 23.921875 48.398437 14.078125 14 24.558594 10.238282 36.878906 15.761719zm0 0" fill="#d3a06c"/><g fill="#cf9e76"><path d="m216.398438 132.320312c1.523437 2.160157 3.203124 4.238282 5.121093 6.160157 9.039063 9.121093 21.441407 13.519531 34.71875 13.519531h-88.238281c-26.480469 0-48-17.921875-48-40 0-2.71875.320312-5.441406.960938-8 23.039062.398438 23.359374 16 47.039062 16 21.039062 0 23.601562-12.320312 40.078125-15.28125.082031 10.160156 2.800781 19.679688 8.320313 27.601562zm0 0"/><path d="m209.199219 91.441406c-.878907 4.480469-1.277344 8.957032-1.121094 13.277344-16.476563 2.960938-19.039063 15.28125-40.078125 15.28125-23.679688 0-24-15.601562-47.039062-16 2.640624-10.960938 10.800781-20.398438 21.917968-26.078125 5.042969-2.640625 10.722656-4.402344 16.800782-5.28125 2.640624-.402344 5.441406-.640625 8.320312-.640625 17.441406 0 32.800781 7.839844 41.199219 19.441406zm0 0"/><path d="m327.519531 43.679688.082031.082031c-4.882812 10.636719-7.601562 23.039062-7.601562 36.238281 0 10.558594 1.761719 20.640625 5.039062 29.679688-3.679687 6.160156-8.238281 12.160156-13.757812 17.601562-16.242188 16.238281-36.5625 24.71875-55.042969 24.71875-13.277343 0-25.679687-4.398438-34.71875-13.519531-1.917969-1.921875-3.597656-4-5.121093-6.160157 16.402343-15.601562 27.601562-5.039062 44.320312-21.679687 16.960938-16.960937 5.601562-28.320313 22.640625-45.28125 16.640625-16.640625 27.761719-6.160156 44.160156-21.679687zm0 0"/><path d="m209.199219 91.441406c2.878906-14.882812 10.800781-30 23.519531-42.722656 27.921875-27.917969 68.082031-32.957031 89.761719-11.199219 1.917969 1.839844 3.597656 4 5.039062 6.160157-16.398437 15.519531-27.519531 5.039062-44.160156 21.679687-17.039063 16.960937-5.679687 28.320313-22.640625 45.28125-16.71875 16.640625-27.917969 6.078125-44.320312 21.679687-5.519532-7.921874-8.238282-17.441406-8.320313-27.601562-.15625-4.320312.242187-8.796875 1.121094-13.277344zm0 0"/></g><path d="m384 8.71875c27.121094 4.960938 48 34.960938 48 71.28125 0 39.761719-25.039062 72-56 72-2.71875 0-5.359375-.238281-8-.71875.320312-23.28125 16-23.519531 16-47.28125 0-24-16-24-16-48 0-23.761719 15.679688-24 16-47.28125zm0 0" fill="#d3a06c"/><path d="m327.761719 43.441406c9.679687-21.203125 27.679687-35.441406 48.238281-35.441406 2.71875 0 5.359375.238281 8 .71875-.320312 23.28125-16 23.519531-16 47.28125 0 24 16 24 16 48 0 23.761719-15.679688 24-16 47.28125-19.199219-3.519531-35.28125-19.601562-42.960938-41.601562-3.277343-9.039063-5.039062-19.121094-5.039062-29.679688 0-13.199219 2.71875-25.601562 7.601562-36.238281 0-.082031.078126-.242188.160157-.320313zm0 0" fill="#d3a06c"/><path d="m496 360c0-23.046875-16.6875-44.464844-48-62.207031v-129.792969c0-13.230469-10.769531-24-24-24h-9.761719c15.601563-14.601562 25.761719-37.816406 25.761719-64 0-44.113281-28.710938-80-64-80-20.160156 0-38.144531 11.742188-49.886719 30.007812-12.144531-10.929687-28.738281-15.726562-47.167969-13.449218-18.722656 2.335937-37.152343 11.753906-51.890624 26.496094-9.773438 9.769531-17.132813 21.175781-21.71875 33.203124-10.046876-7.746093-23.089844-12.195312-37.105469-12.242187-.222657-15.769531-7.191407-32.078125-19.558594-44.40625-23.519531-23.441406-59.023437-26.183594-79.152344-6.152344-8.71875 8.6875-13.519531 20.710938-13.519531 33.863281 0 16.175782 7.175781 32.609376 19.6875 45.070313 10.234375 10.195313 23.128906 16.753906 36.351562 18.824219 0 .265625-.039062.519531-.039062.785156 0 12.304688 5.472656 23.496094 14.375 32h-54.375c-13.230469 0-24 10.769531-24 24v129.792969c-31.3125 17.742187-48 39.160156-48 62.207031 0 25.777344 21.3125 49.078125 57.070312 67.0625l3.328126 13.816406c7.832031 32.457032 36.609374 55.121094 69.992187 55.121094h235.203125c33.382812 0 62.167969-22.671875 70-55.128906l3.328125-13.808594c35.765625-17.984375 57.078125-41.277344 57.078125-67.0625zm-296-40c-13.230469 0-24 10.769531-24 24v32c0 4.414062-3.59375 8-8 8s-8-3.585938-8-8v-32c0-13.230469-10.769531-24-24-24h-72v-17.472656c2.511719.898437 5.183594 1.472656 8 1.472656 10.414062 0 19.214844-6.710938 22.527344-16h193.472656v32h-24c-13.230469 0-24 10.769531-24 24v64c0 4.414062-3.59375 8-8 8s-8-3.585938-8-8v-64c0-13.230469-10.769531-24-24-24zm8 48h-16v-24c0-4.414062 3.59375-8 8-8s8 3.585938 8 8zm-136 0c-4.40625 0-8-3.585938-8-8v-24h72c4.40625 0 8 3.585938 8 8v24zm40-144h-16v-24c0-4.40625 3.59375-8 8-8s8 3.59375 8 8zm-16 16h16c0 13.230469 10.769531 24 24 24s24-10.769531 24-24h120c4.40625 0 8 3.59375 8 8v24h-192zm256 32h-16v-24c0-4.40625 3.59375-8 8-8s8 3.59375 8 8zm-16 16h17.472656c3.3125 9.289062 12.113282 16 22.527344 16s19.214844-6.710938 22.527344-16h33.472656v32h-96zm96-16h-32v-24c0-4.40625 3.59375-8 8-8h24zm0-48h-24c-13.230469 0-24 10.769531-24 24v32c0 4.414062-3.59375 8-8 8s-8-3.585938-8-8v-32c0-13.230469-10.769531-24-24-24s-24 10.769531-24 24v80c0 4.414062-3.59375 8-8 8s-8-3.585938-8-8v-80c0-13.230469-10.769531-24-24-24h-120v-24c0-4.40625 3.59375-8 8-8h264zm-176 120c0-4.414062 3.59375-8 8-8h25.472656c3.3125 9.289062 12.113282 16 22.527344 16s19.214844-6.710938 22.527344-16h97.472656v24c0 4.414062-3.59375 8-8 8h-168zm60.230469-235.640625c-3.085938 4.738281-6.566407 9.242187-10.597657 13.273437-12.242187 12.238282-27.351562 20.03125-42.5625 21.933594-14.046874 1.746094-26.445312-1.824218-35.125-10 3.839844-2.183594 7.46875-2.941406 11.6875-3.78125 7.359376-1.472656 16.519532-3.304687 26.71875-13.503906 10.199219-10.203125 12.03125-19.359375 13.503907-26.722656 1.320312-6.574219 2.351562-11.765625 9.128906-18.542969 6.769531-6.769531 11.960937-7.808594 18.527344-9.121094 2.03125-.40625 4.214843-.863281 6.503906-1.488281-1.261719 6.28125-2.015625 12.824219-2.015625 19.59375 0 10 1.542969 19.527344 4.230469 28.359375zm.714843 24.585937c2.328126-2.328124 4.4375-4.839843 6.519532-7.386718 3.933594 7.074218 8.78125 13.273437 14.296875 18.433594h-34.035157c4.640626-3.25 9.089844-6.914063 13.21875-11.046876zm107.054688-52.945312c0 34.871094-21.039062 63.273438-47.078125 63.9375 1.140625-4.554688 3.253906-7.785156 5.734375-11.503906 4.167969-6.25 9.34375-14.019532 9.34375-28.441406 0-14.425782-5.175781-22.191407-9.34375-28.441407-3.71875-5.582031-6.65625-9.992187-6.65625-19.574219 0-9.570312 2.9375-13.976562 6.65625-19.550781 2.929688-4.394531 6.328125-9.601562 8.105469-17.296875 19.261719 8.328125 33.238281 32.457032 33.238281 60.871094zm-48.929688-63.9375c-1.140624 4.546875-3.253906 7.777344-5.726562 11.488281-4.167969 6.242188-9.34375 14.007813-9.34375 28.425781 0 14.421876 5.175781 22.199219 9.34375 28.449219 3.71875 5.574219 6.65625 9.980469 6.65625 19.566407 0 9.582031-2.9375 13.992187-6.65625 19.566406-2.9375 4.402344-6.335938 9.609375-8.113281 17.3125-19.253907-8.328125-33.230469-32.457032-33.230469-60.871094 0-34.871094 21.03125-63.273438 47.070312-63.9375zm-158.636718 80.867188c1.902344-15.210938 9.6875-30.320313 21.933594-42.5625 12.25-12.238282 27.351562-20.03125 42.5625-21.933594 14.039062-1.753906 26.445312 1.824218 35.132812 10.007812-3.847656 2.183594-7.476562 2.925782-11.679688 3.765625-7.359374 1.472657-16.511718 3.296875-26.710937 13.496094s-12.03125 19.359375-13.503906 26.722656c-1.320313 6.574219-2.351563 11.765625-9.128907 18.542969-6.773437 6.773438-11.96875 7.816406-18.542968 9.128906-5.039063 1.007813-10.96875 2.238282-17.480469 6.183594-2.710937-6.875-3.648437-14.800781-2.582031-23.351562zm-15.671875-3.128907c-.058594.382813-.152344.765625-.203125 1.152344-.152344 1.222656-.183594 2.414063-.269532 3.613281-5.28125 1.882813-9.257812 4.472656-12.722656 6.777344-5.582031 3.71875-9.992187 6.65625-19.566406 6.65625s-13.984375-2.9375-19.558594-6.65625c-4.128906-2.75-8.984375-5.929688-15.9375-7.777344 6.617188-10.375 19.960938-17.566406 35.496094-17.566406 13.078125 0 25.289062 5.246094 32.761719 13.800781zm-63.378907-62.855469c9.90625 9.871094 15.359376 22.871094 14.960938 35.007813-3.359375.839844-6.582031 1.949219-9.648438 3.285156-3.726562-1.292969-7.246093-2.007812-10.4375-2.644531-7.296874-1.449219-13.058593-2.601562-20.59375-10.113281-7.535156-7.503907-8.679687-13.234375-10.144531-20.488281-1.144531-5.703126-2.472656-11.953126-6.6875-18.832032 13.519531-3.390625 30.105469 1.382813 42.550781 13.785156zm-50.398437 50.109376c-9.519531-9.480469-14.984375-21.773438-14.984375-33.734376 0-8.96875 3.039062-16.746093 8.777344-22.480468 3.101562 4.785156 4.023437 9.160156 5.054687 14.304687 1.671875 8.3125 3.558594 17.734375 14.535157 28.671875 9.160156 9.128906 17.257812 11.925782 24.535156 13.574219-4.054688 4.195313-7.246094 9-9.460938 14.210937-10.234375-1.378906-20.363281-6.480468-28.457031-14.546874zm41.136719 31.882812c4.527344 1.152344 7.742187 3.246094 11.4375 5.71875 6.25 4.167969 14.015625 9.34375 28.441406 9.34375s22.191406-5.175781 28.441406-9.34375c1.582032-1.054688 3.085938-2.039062 4.628906-2.921875 2.050782 10.921875 7 20.59375 14.609376 28.265625h-47.679688c-21.65625 0-39.246094-13.863281-39.878906-31.0625zm-64.121094 55.0625c0-4.40625 3.59375-8 8-8h183.808594c.085937 0 .175781.007812.269531.007812.066406 0 .128906-.007812.1875-.007812h167.734375c4.40625 0 8 3.59375 8 8v8h-264c-13.230469 0-24 10.769531-24 24v40c0 4.40625-3.59375 8-8 8s-8-3.59375-8-8v-40c0-13.230469-10.769531-24-24-24s-24 10.769531-24 24v80c0 4.414062-3.59375 8-8 8s-8-3.585938-8-8zm356.03125 269.128906c-6.078125 25.238282-28.472656 42.871094-54.4375 42.871094h-235.203125c-25.964844 0-48.34375-17.625-54.4375-42.863281l-.433594-1.792969c44.328125 17.816406 104.808594 28.65625 172.480469 28.65625 67.664062 0 128.144531-10.832031 172.464844-28.65625zm-172.03125 10.871094c-138.777344 0-232-45.503906-232-88 0-14.929688 11.320312-30.121094 32-43.566406v43.566406c0 13.230469 10.769531 24 24 24h73.472656c3.3125 9.289062 12.113282 16 22.527344 16s19.214844-6.710938 22.527344-16h17.472656v24c0 13.230469 10.769531 24 24 24s24-10.769531 24-24v-24h168c13.230469 0 24-10.769531 24-24v-43.566406c20.679688 13.445312 32 28.636718 32 43.566406 0 42.496094-93.222656 88-232 88zm0 0"/></svg>