<?xml version="1.0" encoding="iso-8859-1"?>
<!-- Generator: Adobe Illustrator 19.0.0, SVG Export Plug-In . SVG Version: 6.00 Build 0)  -->
<svg version="1.1" id="Capa_1" xmlns="http://www.w3.org/2000/svg" xmlns:xlink="http://www.w3.org/1999/xlink" x="0px" y="0px"
	 viewBox="0 0 430.082 430.082" style="enable-background:new 0 0 430.082 430.082;" xml:space="preserve">
<polyline style="fill:#FFFFFF;" points="208.612,211.631 204.801,129.709 402.775,129.709 389.121,423.256 218.455,423.256 "/>
<path style="fill:#602F75;" d="M389.121,430.082H218.455c-3.77,0-6.827-3.053-6.827-6.827s3.057-6.827,6.827-6.827h164.151
	l13.02-279.893H211.95l3.48,74.772c0.174,3.767-2.738,6.967-6.504,7.141c-3.763,0.2-6.963-2.739-7.137-6.501l-3.809-81.92
	c-0.087-1.867,0.594-3.686,1.884-5.033c1.287-1.347,3.07-2.113,4.937-2.113h197.973c1.867,0,3.651,0.766,4.937,2.113
	c1.29,1.347,1.969,3.166,1.884,5.033l-13.653,293.547C395.77,427.215,392.768,430.082,389.121,430.082z"/>
<path style="fill:#FFE600;" d="M238.935,423.256H75.095c-22.622,0-40.96-18.338-40.96-40.96l0,0h245.76l0,0
	C279.895,404.918,261.556,423.256,238.935,423.256z"/>
<path style="fill:#602F75;" d="M238.935,430.082H75.095c-26.349,0-47.787-21.439-47.787-47.787c0-3.773,3.057-6.827,6.827-6.827
	h245.76c3.77,0,6.827,3.053,6.827,6.827C286.721,408.642,265.284,430.082,238.935,430.082z M41.647,389.122
	c3.169,15.56,16.963,27.307,33.447,27.307h163.84c16.483,0,30.276-11.747,33.447-27.307H41.647z"/>
<path style="fill:#FFFFFF;" d="M279.895,382.296H34.135c-11.31,0-20.48-9.17-20.48-20.48l0,0c0-11.31,9.17-20.48,20.48-20.48h245.76
	c11.31,0,20.48,9.17,20.48,20.48l0,0C300.375,373.126,291.205,382.296,279.895,382.296z"/>
<path style="fill:#602F75;" d="M279.895,389.122H34.135c-15.056,0-27.307-12.247-27.307-27.307c0-15.06,12.25-27.307,27.307-27.307
	h245.76c15.056,0,27.307,12.247,27.307,27.307C307.201,376.875,294.951,389.122,279.895,389.122z M34.135,348.162
	c-7.53,0-13.653,6.127-13.653,13.653c0,7.526,6.124,13.653,13.653,13.653h245.76c7.53,0,13.653-6.127,13.653-13.653
	c0-7.526-6.124-13.653-13.653-13.653H34.135z"/>
<g>
	<circle style="fill:#EA3457;" cx="300.375" cy="273.067" r="61.44"/>
	<path style="fill:#EA3457;" d="M300.375,341.336c-37.644,0-68.267-30.626-68.267-68.267s30.623-68.267,68.267-68.267
		s68.267,30.626,68.267,68.267S338.018,341.336,300.375,341.336z M300.375,218.456c-30.114,0-54.613,24.499-54.613,54.613
		s24.499,54.613,54.613,54.613s54.613-24.499,54.613-54.613S330.489,218.456,300.375,218.456z"/>
</g>
<path style="fill:#FFE600;" d="M170.668,232.109h-27.307c-60.324,0-109.227,48.903-109.227,109.227l0,0h245.76l0,0
	C279.895,281.01,230.992,232.109,170.668,232.109z"/>
<g>
	<path style="fill:#602F75;" d="M279.895,348.162H34.135c-3.77,0-6.827-3.053-6.827-6.827c0-63.993,52.06-116.053,116.053-116.053
		h27.307c63.993,0,116.053,52.06,116.053,116.053C286.721,345.109,283.665,348.162,279.895,348.162z M41.188,334.509h231.653
		c-3.526-53.294-48.003-95.573-102.173-95.573h-27.307C89.192,238.936,44.714,281.215,41.188,334.509z"/>
	<rect x="88.748" y="266.241" style="fill:#602F75;" width="13.653" height="13.653"/>
	<rect x="81.921" y="293.547" style="fill:#602F75;" width="13.653" height="13.653"/>
	<rect x="163.841" y="259.414" style="fill:#602F75;" width="13.653" height="13.653"/>
	<rect x="204.801" y="293.547" style="fill:#602F75;" width="13.653" height="13.653"/>
	<rect x="143.361" y="300.374" style="fill:#602F75;" width="13.653" height="13.653"/>
</g>
<rect x="184.321" y="102.401" style="fill:#00E7FF;" width="232.107" height="27.307"/>
<g>
	<path style="fill:#602F75;" d="M416.428,136.536H184.321c-3.77,0-6.827-3.053-6.827-6.827v-27.307c0-3.773,3.057-6.827,6.827-6.827
		h232.107c3.77,0,6.827,3.053,6.827,6.827v27.307C423.255,133.482,420.198,136.536,416.428,136.536z M191.148,122.882h218.453
		v-13.653H191.148V122.882z"/>
	<path style="fill:#602F75;" d="M232.101,109.229c-3.15,0-5.984-2.193-6.67-5.393l-20.48-95.573c-0.79-3.686,1.56-7.32,5.246-8.107
		c3.693-0.8,7.316,1.56,8.107,5.239l20.48,95.573c0.79,3.686-1.56,7.32-5.246,8.107
		C233.059,109.181,232.574,109.229,232.101,109.229z"/>
</g>
<g>
</g>
<g>
</g>
<g>
</g>
<g>
</g>
<g>
</g>
<g>
</g>
<g>
</g>
<g>
</g>
<g>
</g>
<g>
</g>
<g>
</g>
<g>
</g>
<g>
</g>
<g>
</g>
<g>
</g>
</svg>
