<svg id="svg" version="1.1" xmlns="http://www.w3.org/2000/svg" xmlns:xlink="http://www.w3.org/1999/xlink" width="400" height="400" viewBox="0, 0, 400,400"><g id="svgg"><path id="path0" d="M185.900 0.280 C 181.373 0.363,178.400 0.573,178.400 0.809 C 178.400 1.040,176.609 1.200,174.024 1.200 C 171.537 1.200,169.540 1.373,169.400 1.600 C 169.264 1.820,167.723 2.000,165.976 2.000 C 164.125 2.000,162.800 2.167,162.800 2.400 C 162.800 2.628,161.608 2.800,160.024 2.800 C 158.497 2.800,157.136 2.980,157.000 3.200 C 156.864 3.420,155.683 3.600,154.376 3.600 C 153.059 3.600,152.000 3.778,152.000 4.000 C 152.000 4.220,151.021 4.400,149.824 4.400 C 148.627 4.400,147.536 4.580,147.400 4.800 C 147.264 5.020,146.364 5.200,145.400 5.200 C 144.436 5.200,143.536 5.380,143.400 5.600 C 143.264 5.820,142.353 6.000,141.376 6.000 C 140.399 6.000,139.600 6.180,139.600 6.400 C 139.600 6.620,138.880 6.800,138.000 6.800 C 137.120 6.800,136.400 6.980,136.400 7.200 C 136.400 7.420,135.601 7.600,134.624 7.600 C 133.647 7.600,132.749 7.759,132.629 7.953 C 132.509 8.147,131.241 8.431,129.810 8.584 C 128.379 8.737,127.106 9.029,126.981 9.231 C 126.855 9.434,126.397 9.600,125.963 9.600 C 124.814 9.600,122.400 12.165,122.400 13.387 C 122.400 13.944,122.220 14.400,122.000 14.400 C 121.260 14.400,121.592 16.354,122.500 17.351 C 122.995 17.894,123.815 18.888,124.323 19.560 C 126.034 21.825,127.503 21.923,134.481 20.237 C 143.160 18.140,144.490 17.853,150.400 16.795 C 161.532 14.804,166.076 14.238,182.423 12.805 C 188.504 12.272,211.250 12.279,217.600 12.816 C 229.638 13.833,238.976 14.919,245.000 16.003 C 246.100 16.201,248.170 16.564,249.600 16.808 C 251.030 17.053,252.920 17.413,253.800 17.607 C 254.680 17.802,256.390 18.169,257.600 18.424 C 268.125 20.638,284.159 25.396,290.800 28.275 C 292.688 29.093,294.039 29.648,295.000 30.000 C 304.125 33.342,321.398 43.174,331.718 50.903 C 341.752 58.416,355.198 71.575,359.977 78.557 C 360.294 79.021,360.676 79.490,360.827 79.600 C 361.275 79.929,368.091 89.760,369.600 92.256 C 377.065 104.602,383.599 119.061,384.758 125.800 C 386.100 133.605,380.234 141.818,372.080 143.550 C 369.077 144.188,30.968 144.194,27.920 143.557 C 19.818 141.861,13.514 132.939,15.186 125.533 C 16.695 118.845,23.439 103.742,28.908 94.800 C 29.783 93.370,30.881 91.529,31.349 90.710 C 37.076 80.678,52.581 63.315,64.000 54.148 C 75.332 45.050,84.047 39.853,104.395 30.057 C 107.554 28.536,108.445 27.036,108.333 23.426 C 108.244 20.588,107.655 19.200,106.538 19.200 C 106.242 19.200,106.000 19.020,106.000 18.800 C 106.000 18.567,104.667 18.400,102.800 18.400 C 100.933 18.400,99.600 18.567,99.600 18.800 C 99.600 19.020,99.161 19.200,98.624 19.200 C 98.087 19.200,97.536 19.380,97.400 19.600 C 97.264 19.820,96.803 20.000,96.376 20.000 C 95.949 20.000,95.600 20.180,95.600 20.400 C 95.600 20.620,95.240 20.800,94.800 20.800 C 94.360 20.800,94.000 20.980,94.000 21.200 C 94.000 21.420,93.640 21.600,93.200 21.600 C 92.760 21.600,92.400 21.780,92.400 22.000 C 92.400 22.220,92.130 22.400,91.800 22.400 C 91.470 22.400,91.200 22.580,91.200 22.800 C 91.200 23.020,90.864 23.200,90.453 23.200 C 90.042 23.200,88.475 23.830,86.972 24.600 C 85.468 25.370,84.005 26.000,83.719 26.000 C 83.434 26.000,83.200 26.138,83.200 26.306 C 83.200 26.474,82.525 26.918,81.700 27.294 C 80.188 27.981,77.970 29.229,77.600 29.601 C 77.490 29.711,76.860 30.070,76.200 30.398 C 75.540 30.726,74.709 31.311,74.353 31.697 C 73.997 32.084,73.412 32.400,73.053 32.400 C 72.694 32.400,72.400 32.580,72.400 32.800 C 72.400 33.020,72.164 33.200,71.875 33.200 C 71.587 33.200,71.002 33.515,70.575 33.900 C 70.149 34.285,69.305 34.855,68.700 35.168 C 68.095 35.480,67.600 35.885,67.600 36.068 C 67.600 36.250,67.357 36.400,67.059 36.400 C 66.762 36.400,65.954 36.940,65.263 37.600 C 64.572 38.260,63.817 38.800,63.585 38.800 C 63.353 38.800,62.739 39.225,62.220 39.744 C 61.700 40.263,60.629 41.088,59.838 41.577 C 59.047 42.065,58.400 42.618,58.400 42.806 C 58.400 42.993,58.031 43.263,57.580 43.406 C 57.129 43.549,56.166 44.261,55.439 44.988 C 54.712 45.714,53.735 46.514,53.266 46.764 C 52.421 47.217,46.842 52.436,43.265 56.122 C 42.239 57.178,39.958 59.518,38.197 61.322 C 36.435 63.125,34.552 65.230,34.012 66.000 C 33.472 66.770,32.529 67.877,31.915 68.460 C 31.302 69.044,30.800 69.684,30.800 69.882 C 30.800 70.081,30.170 70.931,29.400 71.772 C 28.630 72.613,28.000 73.445,28.000 73.622 C 28.000 73.798,27.771 74.181,27.492 74.471 C 26.561 75.440,24.000 79.102,24.000 79.465 C 24.000 79.662,23.640 80.083,23.200 80.400 C 22.760 80.717,22.400 81.257,22.400 81.600 C 22.400 81.943,22.040 82.483,21.600 82.800 C 21.160 83.117,20.800 83.697,20.800 84.088 C 20.800 84.480,20.620 84.800,20.400 84.800 C 20.180 84.800,20.000 85.036,20.000 85.325 C 20.000 85.613,19.640 86.236,19.200 86.708 C 18.760 87.180,18.400 87.844,18.400 88.183 C 18.400 88.522,18.220 88.800,18.000 88.800 C 17.780 88.800,17.600 89.120,17.600 89.512 C 17.600 89.903,17.240 90.483,16.800 90.800 C 16.360 91.117,16.000 91.697,16.000 92.088 C 16.000 92.480,15.854 92.800,15.675 92.800 C 15.496 92.800,15.102 93.430,14.800 94.200 C 14.498 94.970,14.104 95.600,13.925 95.600 C 13.746 95.600,13.600 95.960,13.600 96.400 C 13.600 96.840,13.420 97.200,13.200 97.200 C 12.980 97.200,12.800 97.560,12.800 98.000 C 12.800 98.440,12.620 98.800,12.400 98.800 C 12.180 98.800,12.000 99.160,12.000 99.600 C 12.000 100.040,11.820 100.400,11.600 100.400 C 11.380 100.400,11.200 100.760,11.200 101.200 C 11.200 101.640,11.020 102.000,10.800 102.000 C 10.580 102.000,10.400 102.236,10.400 102.525 C 10.400 102.814,10.040 103.795,9.600 104.706 C 9.160 105.616,8.799 106.595,8.798 106.881 C 8.797 107.166,8.347 108.286,7.798 109.368 C 7.249 110.450,6.800 111.665,6.800 112.068 C 6.800 112.471,6.620 112.800,6.400 112.800 C 6.180 112.800,6.000 113.250,6.000 113.800 C 6.000 114.350,5.820 114.800,5.600 114.800 C 5.380 114.800,5.200 115.250,5.200 115.800 C 5.200 116.350,5.020 116.800,4.800 116.800 C 4.580 116.800,4.400 117.340,4.400 118.000 C 4.400 118.660,4.220 119.200,4.000 119.200 C 3.780 119.200,3.600 119.909,3.600 120.776 C 3.600 121.643,3.420 122.464,3.200 122.600 C 2.663 122.932,2.663 133.200,3.200 133.200 C 3.420 133.200,3.600 133.920,3.600 134.800 C 3.600 135.680,3.780 136.400,4.000 136.400 C 4.220 136.400,4.400 136.940,4.400 137.600 C 4.400 138.260,4.580 138.800,4.800 138.800 C 5.020 138.800,5.200 139.160,5.200 139.600 C 5.200 140.040,5.380 140.400,5.600 140.400 C 5.820 140.400,6.000 140.670,6.000 141.000 C 6.000 141.330,6.180 141.600,6.400 141.600 C 6.620 141.600,6.800 141.920,6.800 142.312 C 6.800 142.703,7.160 143.283,7.600 143.600 C 8.040 143.917,8.400 144.465,8.400 144.817 C 8.400 145.169,9.211 146.303,10.202 147.337 L 12.003 149.218 10.302 151.008 C 9.366 151.992,7.835 153.604,6.900 154.589 C 5.965 155.575,5.200 156.589,5.200 156.844 C 5.200 157.098,4.871 157.597,4.470 157.953 C 4.068 158.309,3.484 159.185,3.172 159.900 C 2.860 160.615,2.469 161.200,2.302 161.200 C 2.136 161.200,2.000 161.549,2.000 161.976 C 2.000 162.403,1.820 162.864,1.600 163.000 C 1.380 163.136,1.200 163.672,1.200 164.190 C 1.200 164.709,0.975 165.208,0.700 165.300 C -0.028 165.542,-0.028 190.857,0.700 191.100 C 0.975 191.192,1.200 191.702,1.200 192.233 C 1.200 192.765,1.380 193.200,1.600 193.200 C 1.820 193.200,2.000 193.543,2.000 193.962 C 2.000 194.869,3.608 198.000,4.074 198.000 C 4.253 198.000,4.400 198.320,4.400 198.712 C 4.400 199.103,4.760 199.683,5.200 200.000 C 5.640 200.317,6.000 200.775,6.000 201.018 C 6.000 202.172,13.401 208.800,14.689 208.800 C 14.970 208.800,15.200 208.980,15.200 209.200 C 15.200 209.420,15.560 209.600,16.000 209.600 C 16.440 209.600,16.800 209.780,16.800 210.000 C 16.800 210.220,17.160 210.400,17.600 210.400 C 18.040 210.400,18.400 210.580,18.400 210.800 C 18.400 211.020,18.760 211.200,19.200 211.200 C 19.640 211.200,20.000 211.380,20.000 211.600 C 20.000 211.820,20.540 212.000,21.200 212.000 C 21.860 212.000,22.400 212.180,22.400 212.400 C 22.400 212.620,22.940 212.800,23.600 212.800 L 24.800 212.800 24.800 229.429 C 24.800 247.630,24.857 247.200,22.452 247.200 C 21.789 247.200,21.136 247.380,21.000 247.600 C 20.864 247.820,20.403 248.000,19.976 248.000 C 19.549 248.000,19.200 248.180,19.200 248.400 C 19.200 248.620,18.966 248.800,18.680 248.800 C 17.944 248.800,16.007 249.741,16.003 250.100 C 16.001 250.265,15.640 250.400,15.200 250.400 C 14.760 250.400,14.400 250.580,14.400 250.800 C 14.400 251.020,14.130 251.200,13.800 251.200 C 13.470 251.200,13.200 251.380,13.200 251.600 C 13.200 251.820,13.002 252.000,12.760 252.000 C 12.519 252.000,11.817 252.540,11.200 253.200 C 10.583 253.860,9.947 254.400,9.786 254.400 C 9.406 254.400,7.601 256.497,7.600 256.940 C 7.600 257.126,7.060 257.783,6.400 258.400 C 5.740 259.017,5.200 259.679,5.200 259.872 C 5.200 260.065,4.840 260.483,4.400 260.800 C 3.960 261.117,3.600 261.697,3.600 262.088 C 3.600 262.480,3.420 262.800,3.200 262.800 C 2.980 262.800,2.800 263.160,2.800 263.600 C 2.800 264.040,2.620 264.400,2.400 264.400 C 2.180 264.400,2.000 264.760,2.000 265.200 C 2.000 265.640,1.820 266.000,1.600 266.000 C 1.380 266.000,1.200 266.525,1.200 267.167 C 1.200 267.808,0.975 268.408,0.700 268.500 C 0.314 268.628,0.200 271.529,0.200 281.200 C 0.200 290.871,0.314 293.771,0.700 293.900 C 0.975 293.992,1.200 294.592,1.200 295.233 C 1.200 295.875,1.380 296.400,1.600 296.400 C 1.820 296.400,2.000 296.760,2.000 297.200 C 2.000 297.640,2.180 298.000,2.400 298.000 C 2.620 298.000,2.800 298.360,2.800 298.800 C 2.800 299.240,2.980 299.600,3.200 299.600 C 3.420 299.600,3.600 299.960,3.600 300.400 C 3.600 300.840,3.780 301.200,4.000 301.200 C 4.220 301.200,4.400 301.443,4.400 301.741 C 4.400 302.038,4.940 302.846,5.600 303.537 C 6.260 304.228,6.800 304.893,6.800 305.015 C 6.800 305.345,10.265 308.800,10.595 308.800 C 10.751 308.800,11.383 309.340,12.000 310.000 C 12.617 310.660,13.326 311.200,13.577 311.200 C 13.828 311.200,14.420 311.560,14.892 312.000 C 15.364 312.440,15.987 312.800,16.275 312.800 C 16.564 312.800,16.800 312.980,16.800 313.200 C 16.800 313.420,17.149 313.600,17.576 313.600 C 18.003 313.600,18.464 313.780,18.600 314.000 C 18.736 314.220,19.287 314.400,19.824 314.400 C 20.361 314.400,20.800 314.580,20.800 314.800 C 20.800 315.020,21.340 315.200,22.000 315.200 C 22.660 315.200,23.200 315.380,23.200 315.600 C 23.200 315.820,23.560 316.000,24.000 316.000 C 24.759 316.000,24.801 316.275,24.825 321.300 C 24.838 324.215,25.018 327.950,25.225 329.600 C 25.431 331.250,25.713 333.548,25.850 334.707 C 25.988 335.866,26.258 336.912,26.450 337.031 C 26.643 337.150,26.800 337.779,26.800 338.429 C 26.800 339.079,26.965 339.923,27.167 340.305 C 27.368 340.687,27.953 342.394,28.467 344.098 C 28.980 345.802,29.535 347.197,29.700 347.198 C 29.865 347.199,30.000 347.639,30.000 348.176 C 30.000 348.713,30.180 349.264,30.400 349.400 C 30.620 349.536,30.800 349.997,30.800 350.424 C 30.800 350.851,30.980 351.200,31.200 351.200 C 31.420 351.200,31.600 351.560,31.600 352.000 C 31.600 352.440,31.780 352.800,32.000 352.800 C 32.220 352.800,32.400 353.160,32.400 353.600 C 32.400 354.040,32.546 354.400,32.725 354.400 C 32.904 354.400,33.298 355.030,33.600 355.800 C 33.902 356.570,34.296 357.200,34.475 357.200 C 34.654 357.200,34.800 357.470,34.800 357.800 C 34.800 358.130,34.980 358.400,35.200 358.400 C 35.420 358.400,35.600 358.670,35.600 359.000 C 35.600 359.330,35.750 359.600,35.932 359.600 C 36.115 359.600,36.519 360.095,36.830 360.700 C 37.140 361.305,37.711 362.091,38.097 362.447 C 38.484 362.803,38.800 363.316,38.800 363.586 C 38.800 363.857,39.340 364.583,40.000 365.200 C 40.660 365.817,41.200 366.516,41.200 366.753 C 41.200 367.400,48.574 374.946,49.863 375.618 C 50.476 375.938,51.680 376.875,52.538 377.700 C 53.395 378.525,54.305 379.200,54.560 379.200 C 54.815 379.200,55.283 379.560,55.600 380.000 C 55.917 380.440,56.457 380.800,56.800 380.800 C 57.143 380.800,57.683 381.160,58.000 381.600 C 58.317 382.040,58.807 382.400,59.088 382.400 C 59.370 382.400,59.600 382.550,59.600 382.732 C 59.600 382.915,60.095 383.320,60.700 383.632 C 61.305 383.944,61.890 384.289,62.000 384.399 C 62.394 384.795,64.613 386.054,65.300 386.271 C 65.685 386.393,66.000 386.652,66.000 386.847 C 66.000 387.041,66.360 387.200,66.800 387.200 C 67.240 387.200,67.600 387.380,67.600 387.600 C 67.600 387.820,67.960 388.000,68.400 388.000 C 68.840 388.000,69.200 388.180,69.200 388.400 C 69.200 388.620,69.560 388.800,70.000 388.800 C 70.440 388.800,70.800 388.980,70.800 389.200 C 70.800 389.420,71.036 389.600,71.325 389.600 C 71.614 389.600,72.605 389.965,73.527 390.410 C 74.450 390.856,75.747 391.329,76.411 391.462 C 77.074 391.595,77.714 391.860,77.832 392.052 C 77.950 392.243,78.487 392.400,79.024 392.400 C 79.561 392.400,80.000 392.580,80.000 392.800 C 80.000 393.020,80.540 393.200,81.200 393.200 C 81.860 393.200,82.400 393.380,82.400 393.600 C 82.400 393.820,82.940 394.000,83.600 394.000 C 84.260 394.000,84.800 394.180,84.800 394.400 C 84.800 394.620,85.340 394.800,86.000 394.800 C 86.660 394.800,87.200 394.980,87.200 395.200 C 87.200 395.420,87.729 395.600,88.376 395.600 C 89.023 395.600,89.664 395.780,89.800 396.000 C 89.936 396.220,90.667 396.400,91.424 396.400 C 92.181 396.400,92.800 396.580,92.800 396.800 C 92.800 397.020,93.610 397.200,94.600 397.200 C 95.590 397.200,96.400 397.380,96.400 397.600 C 96.400 397.820,97.300 398.000,98.400 398.000 C 99.500 398.000,100.400 398.180,100.400 398.400 C 100.400 398.628,101.589 398.800,103.167 398.800 C 105.024 398.800,105.988 398.964,106.100 399.300 C 106.233 399.698,125.369 399.800,200.000 399.800 C 274.631 399.800,293.767 399.698,293.900 399.300 C 294.012 398.964,294.976 398.800,296.833 398.800 C 298.411 398.800,299.600 398.628,299.600 398.400 C 299.600 398.180,300.500 398.000,301.600 398.000 C 302.700 398.000,303.600 397.820,303.600 397.600 C 303.600 397.380,304.410 397.200,305.400 397.200 C 306.390 397.200,307.200 397.020,307.200 396.800 C 307.200 396.580,307.920 396.400,308.800 396.400 C 309.680 396.400,310.400 396.220,310.400 396.000 C 310.400 395.780,310.940 395.600,311.600 395.600 C 312.260 395.600,312.800 395.420,312.800 395.200 C 312.800 394.980,313.329 394.800,313.976 394.800 C 314.623 394.800,315.264 394.620,315.400 394.400 C 315.536 394.180,316.087 394.000,316.624 394.000 C 317.161 394.000,317.600 393.820,317.600 393.600 C 317.600 393.380,318.140 393.200,318.800 393.200 C 319.460 393.200,320.000 393.020,320.000 392.800 C 320.000 392.580,320.439 392.400,320.976 392.400 C 321.513 392.400,322.050 392.243,322.168 392.052 C 322.286 391.860,322.926 391.595,323.589 391.462 C 324.253 391.329,325.550 390.856,326.473 390.410 C 327.395 389.965,328.386 389.600,328.675 389.600 C 328.964 389.600,329.200 389.420,329.200 389.200 C 329.200 388.980,329.560 388.800,330.000 388.800 C 330.440 388.800,330.800 388.620,330.800 388.400 C 330.800 388.180,331.160 388.000,331.600 388.000 C 332.040 388.000,332.400 387.820,332.400 387.600 C 332.400 387.380,332.760 387.200,333.200 387.200 C 333.640 387.200,334.000 387.041,334.000 386.847 C 334.000 386.652,334.315 386.393,334.700 386.271 C 335.387 386.054,337.606 384.795,338.000 384.399 C 338.110 384.289,338.695 383.944,339.300 383.632 C 339.905 383.320,340.400 382.915,340.400 382.732 C 340.400 382.550,340.630 382.400,340.912 382.400 C 341.193 382.400,341.683 382.040,342.000 381.600 C 342.317 381.160,342.857 380.800,343.200 380.800 C 343.543 380.800,344.083 380.440,344.400 380.000 C 344.717 379.560,345.221 379.200,345.520 379.200 C 345.818 379.200,346.754 378.480,347.600 377.600 C 348.446 376.720,349.331 376.000,349.569 376.000 C 349.806 376.000,350.000 375.820,350.000 375.600 C 350.000 375.380,350.247 375.200,350.548 375.200 C 351.181 375.200,358.800 367.402,358.800 366.753 C 358.800 366.516,359.340 365.817,360.000 365.200 C 360.660 364.583,361.200 363.857,361.200 363.586 C 361.200 363.316,361.516 362.803,361.903 362.447 C 362.289 362.091,362.860 361.305,363.170 360.700 C 363.481 360.095,363.885 359.600,364.068 359.600 C 364.250 359.600,364.400 359.330,364.400 359.000 C 364.400 358.670,364.580 358.400,364.800 358.400 C 365.020 358.400,365.200 358.130,365.200 357.800 C 365.200 357.470,365.346 357.200,365.525 357.200 C 365.704 357.200,366.098 356.570,366.400 355.800 C 366.702 355.030,367.096 354.400,367.275 354.400 C 367.454 354.400,367.600 354.040,367.600 353.600 C 367.600 353.160,367.780 352.800,368.000 352.800 C 368.220 352.800,368.400 352.440,368.400 352.000 C 368.400 351.560,368.580 351.200,368.800 351.200 C 369.020 351.200,369.200 350.851,369.200 350.424 C 369.200 349.997,369.380 349.536,369.600 349.400 C 369.820 349.264,370.000 348.713,370.000 348.176 C 370.000 347.639,370.135 347.199,370.300 347.198 C 370.465 347.197,371.020 345.802,371.533 344.098 C 372.047 342.394,372.632 340.687,372.833 340.305 C 373.035 339.923,373.200 339.104,373.200 338.485 C 373.200 337.866,373.363 337.189,373.561 336.980 C 373.760 336.771,374.024 335.790,374.149 334.800 C 374.982 328.191,375.146 326.023,375.172 321.300 C 375.199 316.276,375.242 316.000,376.000 316.000 C 376.440 316.000,376.800 315.820,376.800 315.600 C 376.800 315.380,377.340 315.200,378.000 315.200 C 378.660 315.200,379.200 315.020,379.200 314.800 C 379.200 314.580,379.639 314.400,380.176 314.400 C 380.713 314.400,381.264 314.220,381.400 314.000 C 381.536 313.780,381.997 313.600,382.424 313.600 C 382.851 313.600,383.200 313.420,383.200 313.200 C 383.200 312.980,383.436 312.800,383.725 312.800 C 384.013 312.800,384.636 312.440,385.108 312.000 C 385.580 311.560,386.172 311.200,386.423 311.200 C 386.674 311.200,387.383 310.660,388.000 310.000 C 388.617 309.340,389.285 308.800,389.485 308.800 C 389.846 308.800,393.200 305.356,393.200 304.986 C 393.200 304.880,393.740 304.228,394.400 303.537 C 395.060 302.846,395.600 302.038,395.600 301.741 C 395.600 301.443,395.780 301.200,396.000 301.200 C 396.220 301.200,396.400 300.840,396.400 300.400 C 396.400 299.960,396.580 299.600,396.800 299.600 C 397.020 299.600,397.200 299.240,397.200 298.800 C 397.200 298.360,397.380 298.000,397.600 298.000 C 397.820 298.000,398.000 297.640,398.000 297.200 C 398.000 296.760,398.180 296.400,398.400 296.400 C 398.620 296.400,398.800 295.875,398.800 295.233 C 398.800 294.592,399.025 293.992,399.300 293.900 C 400.027 293.657,400.027 268.742,399.300 268.500 C 399.025 268.408,398.800 267.808,398.800 267.167 C 398.800 266.525,398.620 266.000,398.400 266.000 C 398.180 266.000,398.000 265.640,398.000 265.200 C 398.000 264.760,397.820 264.400,397.600 264.400 C 397.380 264.400,397.200 264.040,397.200 263.600 C 397.200 263.160,397.020 262.800,396.800 262.800 C 396.580 262.800,396.400 262.480,396.400 262.088 C 396.400 261.697,396.040 261.117,395.600 260.800 C 395.160 260.483,394.800 260.065,394.800 259.872 C 394.800 259.679,394.305 259.044,393.700 258.460 C 393.095 257.877,392.345 256.905,392.032 256.300 C 391.720 255.695,391.347 255.200,391.203 255.200 C 391.059 255.200,389.978 254.300,388.800 253.200 C 387.622 252.100,386.420 251.200,386.129 251.200 C 385.838 251.200,385.600 251.020,385.600 250.800 C 385.600 250.580,385.322 250.400,384.983 250.400 C 384.644 250.400,383.980 250.040,383.508 249.600 C 383.036 249.160,382.233 248.800,381.725 248.800 C 381.216 248.800,380.800 248.620,380.800 248.400 C 380.800 248.180,380.451 248.000,380.024 248.000 C 379.597 248.000,379.136 247.820,379.000 247.600 C 378.864 247.380,378.211 247.200,377.548 247.200 C 375.143 247.200,375.200 247.630,375.200 229.429 L 375.200 212.800 376.400 212.800 C 377.060 212.800,377.600 212.620,377.600 212.400 C 377.600 212.180,378.140 212.000,378.800 212.000 C 379.460 212.000,380.000 211.820,380.000 211.600 C 380.000 211.380,380.360 211.200,380.800 211.200 C 381.240 211.200,381.600 211.020,381.600 210.800 C 381.600 210.580,381.960 210.400,382.400 210.400 C 382.840 210.400,383.200 210.220,383.200 210.000 C 383.200 209.780,383.560 209.600,384.000 209.600 C 384.440 209.600,384.800 209.420,384.800 209.200 C 384.800 208.980,385.030 208.800,385.311 208.800 C 386.631 208.800,394.000 202.193,394.000 201.009 C 394.000 200.771,394.360 200.317,394.800 200.000 C 395.240 199.683,395.600 199.103,395.600 198.712 C 395.600 198.320,395.780 198.000,396.000 198.000 C 396.220 198.000,396.404 197.775,396.409 197.500 C 396.414 197.225,396.770 196.550,397.200 196.000 C 397.630 195.450,397.986 194.595,397.991 194.100 C 397.996 193.605,398.180 193.200,398.400 193.200 C 398.620 193.200,398.800 192.765,398.800 192.233 C 398.800 191.702,399.025 191.192,399.300 191.100 C 399.686 190.971,399.800 188.031,399.800 178.200 C 399.800 168.369,399.686 165.428,399.300 165.300 C 399.025 165.208,398.800 164.814,398.800 164.423 C 398.800 163.486,396.402 158.777,395.504 157.953 C 395.117 157.597,394.800 157.098,394.800 156.843 C 394.800 156.588,394.035 155.574,393.100 154.591 C 392.165 153.607,390.634 151.996,389.699 151.009 L 387.998 149.216 389.799 147.337 C 390.789 146.303,391.600 145.169,391.600 144.817 C 391.600 144.465,391.960 143.917,392.400 143.600 C 392.840 143.283,393.200 142.718,393.200 142.345 C 393.200 141.972,393.335 141.607,393.500 141.533 C 393.991 141.315,395.600 137.984,395.600 137.186 C 395.600 136.780,395.780 136.336,396.000 136.200 C 396.220 136.064,396.400 135.153,396.400 134.176 C 396.400 133.199,396.580 132.400,396.800 132.400 C 397.043 132.400,397.200 130.600,397.200 127.800 C 397.200 125.000,397.043 123.200,396.800 123.200 C 396.580 123.200,396.400 122.300,396.400 121.200 C 396.400 120.100,396.220 119.200,396.000 119.200 C 395.780 119.200,395.600 118.660,395.600 118.000 C 395.600 117.340,395.420 116.800,395.200 116.800 C 394.980 116.800,394.800 116.361,394.800 115.824 C 394.800 115.287,394.620 114.736,394.400 114.600 C 394.180 114.464,394.000 114.003,394.000 113.576 C 394.000 113.149,393.820 112.800,393.600 112.800 C 393.380 112.800,393.200 112.445,393.200 112.012 C 393.200 111.579,392.870 110.634,392.466 109.912 C 392.062 109.190,391.601 108.072,391.440 107.427 C 391.279 106.782,390.800 105.533,390.374 104.652 C 389.948 103.771,389.600 102.814,389.600 102.525 C 389.600 102.236,389.420 102.000,389.200 102.000 C 388.980 102.000,388.800 101.640,388.800 101.200 C 388.800 100.760,388.620 100.400,388.400 100.400 C 388.180 100.400,388.000 100.040,388.000 99.600 C 388.000 99.160,387.820 98.800,387.600 98.800 C 387.380 98.800,387.200 98.440,387.200 98.000 C 387.200 97.560,387.020 97.200,386.800 97.200 C 386.580 97.200,386.400 96.840,386.400 96.400 C 386.400 95.960,386.254 95.600,386.075 95.600 C 385.896 95.600,385.502 94.970,385.200 94.200 C 384.898 93.430,384.504 92.800,384.325 92.800 C 384.146 92.800,384.000 92.480,384.000 92.088 C 384.000 91.697,383.640 91.117,383.200 90.800 C 382.760 90.483,382.400 89.903,382.400 89.512 C 382.400 89.120,382.220 88.800,382.000 88.800 C 381.780 88.800,381.600 88.480,381.600 88.088 C 381.600 87.697,381.240 87.117,380.800 86.800 C 380.360 86.483,380.000 85.903,380.000 85.512 C 380.000 85.120,379.820 84.800,379.600 84.800 C 379.380 84.800,379.200 84.564,379.200 84.275 C 379.200 83.987,378.840 83.364,378.400 82.892 C 377.960 82.420,377.600 81.796,377.600 81.505 C 377.600 81.214,377.240 80.717,376.800 80.400 C 376.360 80.083,376.000 79.662,376.000 79.465 C 376.000 79.102,373.439 75.440,372.508 74.471 C 372.229 74.181,372.000 73.798,372.000 73.622 C 372.000 73.445,371.370 72.613,370.600 71.772 C 369.830 70.931,369.200 70.085,369.200 69.890 C 369.200 69.696,368.480 68.846,367.600 68.000 C 366.720 67.154,366.000 66.269,366.000 66.031 C 366.000 65.794,365.820 65.600,365.600 65.600 C 365.380 65.600,365.200 65.421,365.200 65.203 C 365.200 64.985,363.577 63.140,361.592 61.103 C 359.608 59.066,357.853 57.254,357.692 57.076 C 356.288 55.520,347.484 47.200,347.241 47.200 C 347.068 47.200,346.070 46.390,345.022 45.400 C 343.974 44.410,342.987 43.600,342.830 43.600 C 342.673 43.600,341.939 43.060,341.200 42.400 C 340.461 41.740,339.691 41.200,339.488 41.200 C 339.286 41.200,338.617 40.660,338.000 40.000 C 337.383 39.340,336.631 38.800,336.328 38.800 C 336.025 38.800,335.517 38.440,335.200 38.000 C 334.883 37.560,334.438 37.200,334.212 37.199 C 333.985 37.199,333.170 36.659,332.400 36.000 C 331.630 35.341,330.857 34.801,330.683 34.801 C 330.509 34.800,329.980 34.440,329.508 34.000 C 329.036 33.560,328.413 33.200,328.125 33.200 C 327.836 33.200,327.600 33.020,327.600 32.800 C 327.600 32.580,327.306 32.400,326.947 32.400 C 326.588 32.400,326.003 32.084,325.647 31.697 C 325.291 31.311,324.460 30.726,323.800 30.398 C 323.140 30.070,322.501 29.669,322.380 29.507 C 321.955 28.937,311.885 24.000,311.148 24.000 C 310.736 24.000,310.400 23.820,310.400 23.600 C 310.400 23.380,310.040 23.200,309.600 23.200 C 309.160 23.200,308.800 23.020,308.800 22.800 C 308.800 22.580,308.530 22.400,308.200 22.400 C 307.870 22.400,307.600 22.220,307.600 22.000 C 307.600 21.780,307.240 21.600,306.800 21.600 C 306.360 21.600,306.000 21.420,306.000 21.200 C 306.000 20.980,305.640 20.800,305.200 20.800 C 304.760 20.800,304.400 20.620,304.400 20.400 C 304.400 20.180,304.051 20.000,303.624 20.000 C 303.197 20.000,302.736 19.820,302.600 19.600 C 302.464 19.380,301.913 19.200,301.376 19.200 C 300.839 19.200,300.400 19.020,300.400 18.800 C 300.400 18.580,300.040 18.400,299.600 18.400 C 299.160 18.400,298.800 18.253,298.800 18.072 C 298.800 17.892,297.900 17.500,296.800 17.200 C 295.700 16.900,294.800 16.508,294.800 16.328 C 294.800 16.147,294.260 16.000,293.600 16.000 C 292.940 16.000,292.400 15.820,292.400 15.600 C 292.400 15.380,292.128 15.200,291.795 15.200 C 291.207 15.200,290.782 15.033,288.905 14.062 C 288.413 13.808,287.659 13.600,287.229 13.600 C 286.799 13.600,286.336 13.420,286.200 13.200 C 286.064 12.980,285.524 12.800,285.000 12.800 C 284.476 12.800,283.936 12.620,283.800 12.400 C 283.664 12.180,283.124 12.000,282.600 12.000 C 282.076 12.000,281.536 11.820,281.400 11.600 C 281.264 11.380,280.533 11.200,279.776 11.200 C 279.019 11.200,278.400 11.020,278.400 10.800 C 278.400 10.580,277.871 10.400,277.224 10.400 C 276.577 10.400,275.936 10.220,275.800 10.000 C 275.664 9.780,275.102 9.600,274.550 9.600 C 273.999 9.600,273.208 9.418,272.792 9.196 C 272.377 8.973,270.949 8.678,269.618 8.539 C 268.288 8.400,267.200 8.132,267.200 7.943 C 267.200 7.754,266.390 7.600,265.400 7.600 C 264.410 7.600,263.600 7.420,263.600 7.200 C 263.600 6.980,262.880 6.800,262.000 6.800 C 261.120 6.800,260.400 6.620,260.400 6.400 C 260.400 6.180,259.601 6.000,258.624 6.000 C 257.647 6.000,256.736 5.820,256.600 5.600 C 256.464 5.380,255.553 5.200,254.576 5.200 C 253.599 5.200,252.800 5.020,252.800 4.800 C 252.800 4.578,251.733 4.400,250.400 4.400 C 249.067 4.400,248.000 4.222,248.000 4.000 C 248.000 3.778,246.933 3.600,245.600 3.600 C 244.267 3.600,243.200 3.422,243.200 3.200 C 243.200 2.969,241.933 2.800,240.200 2.800 C 238.467 2.800,237.200 2.631,237.200 2.400 C 237.200 2.167,235.875 2.000,234.024 2.000 C 232.277 2.000,230.736 1.820,230.600 1.600 C 230.461 1.375,228.540 1.200,226.210 1.200 C 223.931 1.200,222.007 1.043,221.933 0.851 C 221.783 0.458,197.350 0.071,185.900 0.280 M197.231 45.907 C 194.640 47.336,194.355 48.452,194.485 56.675 L 194.600 63.950 195.783 65.184 C 198.307 67.816,202.192 67.667,204.338 64.856 C 205.759 62.995,206.183 50.871,204.913 48.428 C 203.430 45.576,199.920 44.423,197.231 45.907 M147.238 47.528 C 146.447 48.369,145.304 50.034,144.698 51.228 C 144.092 52.423,142.975 54.524,142.217 55.898 C 138.962 61.791,140.712 66.400,146.205 66.400 C 149.131 66.400,153.816 60.239,156.349 53.061 C 158.224 47.749,151.100 43.423,147.238 47.528 M245.685 46.832 C 242.965 48.623,242.387 52.132,244.302 55.222 C 244.909 56.200,245.637 57.450,245.921 58.000 C 249.945 65.795,253.172 67.979,257.001 65.500 C 259.744 63.724,260.303 60.684,258.500 57.350 C 253.018 47.212,252.292 46.344,249.109 46.116 C 247.447 45.998,246.721 46.149,245.685 46.832 M373.634 156.442 C 383.320 159.620,388.400 167.161,388.400 178.362 C 388.400 189.124,383.845 196.369,374.716 200.129 L 372.600 201.000 201.408 201.103 C 88.361 201.171,29.466 201.070,28.008 200.806 C 6.729 196.944,5.724 161.961,26.726 156.212 C 28.235 155.799,61.920 155.690,199.834 155.650 L 371.068 155.600 373.634 156.442 M362.600 219.800 L 362.600 226.600 302.782 226.800 C 236.003 227.023,241.675 226.749,240.214 229.827 C 238.900 232.595,239.912 235.780,242.600 237.337 C 243.192 237.680,258.887 237.852,303.000 238.000 L 362.600 238.200 362.600 252.000 C 362.600 267.773,362.560 267.976,358.996 270.488 C 354.448 273.694,351.062 273.485,345.924 269.683 C 332.689 259.891,317.579 260.723,302.500 272.074 C 288.586 282.549,279.897 282.591,266.246 272.249 C 250.414 260.256,233.978 259.825,219.575 271.026 C 209.992 278.478,207.909 279.365,200.000 279.365 C 192.452 279.365,190.501 278.672,183.800 273.612 C 182.480 272.616,181.310 271.695,181.200 271.568 C 179.265 269.321,171.179 265.237,166.218 264.000 C 157.330 261.785,141.798 264.617,137.600 269.219 C 137.490 269.340,136.770 269.877,136.000 270.414 C 135.230 270.950,134.330 271.615,134.000 271.893 C 130.327 274.979,123.984 278.800,122.534 278.800 C 122.064 278.800,121.994 275.997,122.088 260.870 L 122.200 242.940 123.200 241.480 C 123.750 240.677,125.034 239.565,126.054 239.010 L 127.908 238.000 172.854 237.998 C 202.135 237.996,218.311 237.854,219.267 237.588 C 223.677 236.363,224.633 230.329,220.844 227.632 C 219.323 226.549,127.865 226.303,124.341 227.373 C 119.919 228.715,116.167 231.487,113.833 235.137 C 110.249 240.742,110.431 238.248,110.414 282.088 L 110.400 320.376 109.424 322.488 C 105.064 331.927,92.244 331.994,87.920 322.600 L 87.000 320.600 86.800 281.000 C 86.601 241.532,86.597 241.393,85.734 239.288 C 83.475 233.781,79.389 229.698,74.179 227.743 C 72.396 227.074,70.474 226.980,54.800 226.800 L 37.400 226.600 37.289 220.216 C 37.229 216.705,37.268 213.600,37.377 213.316 C 37.539 212.894,67.599 212.818,200.088 212.900 L 362.600 213.000 362.600 219.800 M71.082 238.840 C 72.158 239.360,73.306 240.385,74.108 241.540 L 75.400 243.400 75.532 252.720 C 75.688 263.648,75.840 263.200,71.977 263.200 C 66.134 263.200,59.165 265.696,54.038 269.625 C 47.404 274.709,40.308 273.254,37.649 266.266 C 36.821 264.090,36.443 239.512,37.223 238.572 C 38.108 237.506,68.829 237.749,71.082 238.840 M25.721 263.500 C 26.860 281.826,45.884 290.164,60.800 278.874 C 62.793 277.366,64.729 276.287,67.229 275.291 C 69.026 274.576,74.328 274.242,75.002 274.802 C 75.512 275.225,75.600 277.403,75.600 289.641 L 75.600 303.985 74.678 304.216 C 72.570 304.745,27.441 304.217,26.200 303.648 C 22.169 301.803,21.199 301.258,19.357 299.808 C 7.392 290.391,9.204 267.415,22.440 260.705 C 25.504 259.153,25.448 259.105,25.721 263.500 M377.740 260.900 C 392.344 268.644,392.097 295.305,377.358 302.019 C 372.131 304.400,384.112 304.190,247.091 304.305 L 121.981 304.410 122.091 297.543 L 122.200 290.676 125.400 289.798 C 130.519 288.394,132.520 287.301,139.482 282.107 C 148.314 275.518,150.412 274.664,157.800 274.646 C 164.725 274.629,167.684 275.777,175.015 281.326 C 180.801 285.705,183.248 287.244,186.465 288.531 C 199.362 293.691,215.677 290.521,225.366 280.972 C 229.538 276.861,235.305 274.667,242.000 274.644 C 249.503 274.619,252.597 275.895,260.566 282.298 C 275.808 294.545,291.976 294.359,308.641 281.743 C 315.929 276.226,318.461 275.063,324.200 274.594 C 329.340 274.173,335.740 275.797,338.051 278.108 C 342.682 282.739,353.646 285.409,359.200 283.258 C 368.741 279.563,373.560 273.125,374.269 263.127 C 374.555 259.107,374.465 259.164,377.740 260.900 M75.040 315.906 C 75.282 316.068,75.600 317.662,75.745 319.450 C 76.510 328.830,82.230 336.468,90.849 339.618 C 104.620 344.651,120.196 335.012,121.428 320.694 C 121.546 319.322,121.731 317.615,121.840 316.900 L 122.036 315.600 242.195 315.600 C 337.882 315.600,362.419 315.702,362.676 316.100 C 363.894 317.981,361.991 334.605,360.009 339.400 C 359.827 339.840,359.273 341.280,358.778 342.600 C 357.073 347.149,353.440 353.705,350.843 356.920 C 345.047 364.094,338.732 369.614,331.600 373.742 C 320.092 380.402,307.694 384.738,294.200 386.822 C 285.879 388.107,115.152 388.522,108.400 387.273 C 106.970 387.009,104.630 386.605,103.200 386.376 C 74.679 381.804,50.875 365.452,41.803 344.200 C 38.185 335.723,35.517 319.545,37.214 316.374 C 37.644 315.570,73.866 315.122,75.040 315.906 " stroke="none" fill="#070604" fill-rule="evenodd"></path><path id="path1" d="M187.600 13.199 C 186.390 13.376,183.890 13.539,182.045 13.560 C 180.200 13.582,177.050 13.786,175.045 14.014 C 173.040 14.242,169.690 14.610,167.600 14.833 C 163.845 15.234,162.834 15.376,155.000 16.611 C 149.151 17.532,139.132 19.520,135.800 20.421 C 131.871 21.483,130.876 21.694,128.947 21.875 C 125.938 22.159,122.400 19.774,122.400 17.462 C 122.400 16.742,121.399 16.554,121.000 17.200 C 120.864 17.420,120.223 17.600,119.576 17.600 C 118.929 17.600,118.400 17.780,118.400 18.000 C 118.400 18.220,117.860 18.400,117.200 18.400 C 116.540 18.400,116.000 18.580,116.000 18.800 C 116.000 19.020,115.561 19.200,115.024 19.200 C 114.487 19.200,113.936 19.380,113.800 19.600 C 113.664 19.820,113.113 20.000,112.576 20.000 C 112.039 20.000,111.600 20.180,111.600 20.400 C 111.600 20.620,111.186 20.800,110.680 20.800 C 109.187 20.800,108.800 21.560,108.800 24.491 C 108.800 27.644,107.000 30.043,103.800 31.156 C 99.753 32.564,87.441 38.704,84.338 40.862 C 83.754 41.268,83.157 41.600,83.010 41.600 C 82.864 41.600,81.959 42.140,81.000 42.800 C 80.041 43.460,79.063 44.000,78.828 44.000 C 78.593 44.000,78.400 44.159,78.400 44.354 C 78.400 44.549,77.795 44.996,77.055 45.347 C 76.315 45.698,75.483 46.259,75.206 46.593 C 74.929 46.927,74.546 47.200,74.356 47.200 C 74.165 47.200,73.692 47.459,73.305 47.776 C 72.917 48.093,71.070 49.469,69.200 50.834 C 60.516 57.173,48.209 68.960,41.879 77.000 C 41.533 77.440,40.459 78.790,39.494 80.000 C 36.807 83.366,29.200 94.788,29.200 95.455 C 29.200 95.565,28.698 96.408,28.084 97.328 C 27.471 98.248,26.534 99.900,26.002 101.000 C 25.471 102.100,24.713 103.478,24.318 104.062 C 23.923 104.646,23.600 105.411,23.600 105.762 C 23.600 106.113,23.420 106.400,23.200 106.400 C 22.980 106.400,22.800 106.665,22.800 106.988 C 22.800 107.311,22.471 108.166,22.068 108.888 C 18.267 115.699,15.178 126.490,15.907 130.408 C 17.158 137.139,21.765 141.701,28.800 143.178 C 31.321 143.707,369.532 143.576,372.000 143.045 C 381.076 141.092,386.409 131.264,383.311 122.200 C 381.981 118.310,379.466 112.163,377.762 108.639 C 377.453 108.000,377.200 107.250,377.200 106.972 C 377.200 106.694,377.059 106.407,376.886 106.333 C 376.714 106.260,375.899 104.850,375.075 103.200 C 374.251 101.550,373.038 99.300,372.380 98.200 C 371.721 97.100,371.063 95.930,370.917 95.600 C 370.226 94.031,363.018 83.340,360.668 80.400 C 360.405 80.070,359.561 78.990,358.794 78.000 C 358.028 77.010,357.310 76.110,357.200 76.000 C 357.089 75.890,355.841 74.450,354.426 72.800 C 351.470 69.353,342.622 60.497,339.984 58.344 C 339.003 57.543,337.660 56.408,337.000 55.822 C 333.514 52.725,320.093 43.200,319.215 43.200 C 318.987 43.200,318.800 43.041,318.800 42.847 C 318.800 42.652,318.485 42.390,318.100 42.264 C 317.715 42.138,316.590 41.552,315.600 40.961 C 314.610 40.370,313.170 39.524,312.400 39.081 C 309.362 37.331,295.815 30.800,295.224 30.800 C 295.059 30.800,294.400 30.550,293.761 30.244 C 291.594 29.205,289.805 28.468,288.200 27.952 C 287.320 27.668,286.429 27.293,286.220 27.118 C 286.011 26.943,285.514 26.800,285.115 26.800 C 284.716 26.800,284.032 26.620,283.595 26.400 C 283.158 26.180,282.442 25.820,282.005 25.600 C 281.568 25.380,280.936 25.200,280.600 25.200 C 280.264 25.200,279.677 25.038,279.295 24.839 C 278.913 24.640,277.790 24.260,276.800 23.993 C 275.810 23.727,274.640 23.362,274.200 23.182 C 273.422 22.863,272.570 22.639,264.200 20.556 C 259.480 19.381,249.208 17.261,245.800 16.758 C 244.480 16.564,242.140 16.217,240.600 15.988 C 232.983 14.857,226.771 14.187,218.200 13.575 C 210.768 13.043,190.374 12.793,187.600 13.199 M201.400 44.800 C 201.536 45.020,201.968 45.200,202.359 45.200 C 206.782 45.200,208.244 61.539,204.205 65.823 C 201.311 68.890,195.872 67.740,194.185 63.703 C 193.439 61.917,193.355 50.616,194.075 48.919 C 194.735 47.362,196.817 45.200,197.655 45.200 C 198.039 45.200,198.464 45.020,198.600 44.800 C 198.736 44.580,199.366 44.400,200.000 44.400 C 200.634 44.400,201.264 44.580,201.400 44.800 M153.914 46.048 C 156.842 47.611,157.972 51.265,156.473 54.319 C 150.979 65.514,148.837 67.756,144.555 66.790 C 140.440 65.862,138.688 61.626,140.754 57.600 C 143.661 51.937,144.623 50.190,144.900 50.067 C 145.065 49.993,145.200 49.740,145.200 49.504 C 145.200 46.515,150.701 44.333,153.914 46.048 M250.851 45.765 C 252.902 46.624,253.538 47.434,257.318 54.000 C 261.241 60.815,261.298 62.613,257.684 65.592 C 253.688 68.885,250.202 66.904,245.731 58.800 C 245.064 57.590,244.131 55.920,243.659 55.088 C 240.640 49.772,245.470 43.511,250.851 45.765 M355.300 213.496 C 356.565 213.575,358.635 213.575,359.900 213.496 C 361.165 213.416,360.130 213.351,357.600 213.351 C 355.070 213.351,354.035 213.416,355.300 213.496 M355.300 226.296 C 356.565 226.375,358.635 226.375,359.900 226.296 C 361.165 226.216,360.130 226.151,357.600 226.151 C 355.070 226.151,354.035 226.216,355.300 226.296 M37.600 321.476 C 37.600 324.268,37.800 327.643,38.043 328.976 C 38.656 332.326,39.992 338.034,40.390 339.000 C 40.571 339.440,40.936 340.430,41.200 341.200 C 44.770 351.598,52.414 361.547,62.716 369.208 C 66.653 372.136,67.516 372.684,71.600 374.847 C 72.590 375.371,73.490 375.890,73.600 376.001 C 73.710 376.111,74.250 376.403,74.800 376.650 C 75.350 376.897,76.610 377.463,77.600 377.909 C 82.231 379.992,83.335 380.431,87.270 381.747 C 94.758 384.253,99.716 385.356,109.200 386.630 C 114.462 387.336,284.579 387.487,289.884 386.791 C 299.883 385.477,309.540 383.206,315.500 380.768 C 315.995 380.566,316.805 380.244,317.300 380.054 C 319.533 379.194,320.311 378.859,321.938 378.057 C 322.894 377.586,323.929 377.200,324.238 377.200 C 324.547 377.200,324.800 377.020,324.800 376.800 C 324.800 376.580,325.160 376.400,325.600 376.400 C 326.040 376.400,326.400 376.264,326.400 376.098 C 326.400 375.931,326.985 375.542,327.700 375.232 C 328.415 374.923,329.720 374.199,330.600 373.623 C 331.480 373.047,332.695 372.326,333.300 372.020 C 333.905 371.715,334.400 371.315,334.400 371.132 C 334.400 370.950,334.579 370.800,334.798 370.800 C 335.017 370.800,336.682 369.675,338.498 368.300 C 347.120 361.772,354.229 352.522,358.096 342.800 C 358.314 342.250,358.652 341.487,358.847 341.105 C 359.041 340.723,359.200 340.059,359.200 339.629 C 359.200 339.199,359.359 338.749,359.554 338.629 C 359.749 338.508,360.010 337.913,360.136 337.305 C 360.261 336.697,360.561 335.300,360.801 334.200 C 361.897 329.179,362.137 327.042,362.167 322.000 L 362.200 316.600 242.200 316.600 L 122.200 316.600 121.953 319.800 C 121.197 329.581,114.787 337.840,106.000 340.352 C 105.010 340.634,103.568 341.046,102.797 341.265 C 100.553 341.903,93.794 341.396,91.400 340.410 C 90.960 340.229,89.970 339.849,89.200 339.567 C 85.910 338.359,78.808 332.166,78.802 330.500 C 78.801 330.225,78.664 330.000,78.498 330.000 C 78.228 330.000,77.852 329.238,76.820 326.600 C 76.648 326.160,76.314 325.350,76.078 324.800 C 75.651 323.803,75.412 322.476,74.947 318.500 L 74.701 316.400 56.150 316.400 L 37.600 316.400 37.600 321.476 " stroke="none" fill="#fb933b" fill-rule="evenodd"></path><path id="path2" d="M181.600 12.854 C 166.607 14.189,159.781 15.052,150.400 16.795 C 142.877 18.193,143.491 18.060,134.481 20.237 C 126.673 22.123,125.531 21.878,122.924 17.754 C 122.661 17.339,122.436 17.198,122.424 17.441 C 122.378 18.294,124.215 20.546,125.573 21.302 C 127.240 22.229,129.527 22.107,134.200 20.844 C 137.690 19.900,138.548 19.704,144.800 18.425 C 174.000 12.449,207.397 11.269,235.800 15.210 C 244.277 16.386,248.365 17.045,253.143 18.005 C 255.421 18.463,257.491 18.767,257.743 18.679 C 257.994 18.592,257.570 18.396,256.800 18.245 C 256.030 18.093,254.680 17.808,253.800 17.611 C 252.920 17.414,251.030 17.053,249.600 16.808 C 248.170 16.564,246.100 16.201,245.000 16.003 C 238.976 14.919,229.638 13.833,217.600 12.816 C 211.825 12.328,187.211 12.354,181.600 12.854 M259.200 19.180 C 259.750 19.354,261.190 19.717,262.400 19.986 C 263.610 20.254,265.140 20.625,265.800 20.810 C 266.460 20.995,267.810 21.359,268.800 21.619 C 269.790 21.880,271.050 22.231,271.600 22.400 C 272.150 22.569,273.410 22.929,274.400 23.199 C 275.390 23.470,276.560 23.830,277.000 24.000 C 277.440 24.170,278.610 24.541,279.600 24.824 C 280.590 25.107,281.571 25.488,281.780 25.670 C 281.989 25.851,282.538 26.000,283.000 26.000 C 283.462 26.000,284.011 26.143,284.220 26.318 C 284.429 26.493,285.320 26.865,286.200 27.145 C 287.080 27.424,288.250 27.845,288.800 28.080 C 289.350 28.315,290.205 28.663,290.700 28.854 C 291.529 29.173,292.523 29.577,294.600 30.439 C 301.039 33.113,308.325 36.665,314.100 39.948 C 314.925 40.416,316.228 41.156,316.996 41.591 C 317.764 42.026,321.049 44.159,324.296 46.331 C 330.013 50.155,331.640 51.371,338.806 57.177 C 341.656 59.486,352.815 70.653,355.618 74.000 C 356.815 75.430,357.887 76.690,357.999 76.800 C 358.110 76.910,359.011 78.080,360.000 79.400 C 360.989 80.720,361.900 81.890,362.024 82.000 C 363.207 83.047,371.371 96.018,373.856 100.800 C 374.485 102.010,375.092 103.090,375.205 103.200 C 375.417 103.406,376.370 105.369,378.119 109.200 C 380.639 114.722,381.200 116.058,381.200 116.532 C 381.200 116.811,381.364 117.211,381.565 117.420 C 382.333 118.219,384.102 124.317,384.295 126.830 C 384.870 134.296,379.826 141.060,372.200 143.053 C 370.631 143.463,29.369 143.463,27.800 143.053 C 15.943 139.955,12.745 129.304,19.378 115.000 C 19.684 114.340,20.252 112.990,20.641 112.000 C 21.030 111.010,21.674 109.610,22.074 108.888 C 22.473 108.166,22.800 107.311,22.800 106.988 C 22.800 106.665,22.980 106.400,23.200 106.400 C 23.420 106.400,23.600 106.076,23.600 105.680 C 23.600 105.284,23.770 104.789,23.978 104.580 C 24.299 104.258,26.625 99.982,28.154 96.903 C 28.399 96.410,28.735 96.005,28.900 96.003 C 29.065 96.001,29.200 95.833,29.200 95.629 C 29.200 94.707,35.902 84.542,39.504 80.000 C 40.464 78.790,41.533 77.440,41.879 77.000 C 48.209 68.960,60.516 57.173,69.200 50.834 C 71.070 49.469,72.917 48.093,73.305 47.776 C 73.692 47.459,74.165 47.200,74.356 47.200 C 74.546 47.200,74.929 46.927,75.206 46.593 C 75.483 46.259,76.315 45.698,77.055 45.347 C 77.795 44.996,78.400 44.549,78.400 44.354 C 78.400 44.159,78.593 44.000,78.828 44.000 C 79.063 44.000,80.041 43.460,81.000 42.800 C 81.959 42.140,82.864 41.600,83.010 41.600 C 83.157 41.600,83.754 41.268,84.338 40.862 C 86.320 39.483,94.623 35.140,99.200 33.088 C 108.331 28.994,108.800 28.563,108.800 24.262 C 108.800 22.798,108.637 21.600,108.438 21.600 C 108.239 21.600,108.166 22.635,108.277 23.900 C 108.540 26.913,107.500 28.562,104.395 30.057 C 84.047 39.853,75.332 45.050,64.000 54.148 C 52.581 63.315,37.076 80.678,31.349 90.710 C 30.881 91.529,29.783 93.370,28.908 94.800 C 23.439 103.742,16.695 118.845,15.186 125.533 C 13.514 132.939,19.818 141.861,27.920 143.557 C 30.968 144.194,369.077 144.188,372.080 143.550 C 380.234 141.818,386.100 133.605,384.758 125.800 C 383.599 119.061,377.065 104.602,369.600 92.256 C 368.091 89.760,361.275 79.929,360.827 79.600 C 360.676 79.490,360.294 79.021,359.977 78.557 C 348.718 62.107,318.798 39.428,297.000 30.823 C 296.560 30.649,295.660 30.279,295.000 30.000 C 294.340 29.721,293.440 29.355,293.000 29.187 C 292.560 29.019,291.570 28.608,290.800 28.275 C 284.250 25.435,261.740 18.735,259.075 18.832 C 258.266 18.861,258.276 18.887,259.200 19.180 M198.600 44.800 C 198.464 45.020,198.039 45.200,197.655 45.200 C 196.817 45.200,194.735 47.362,194.075 48.919 C 193.355 50.616,193.439 61.917,194.185 63.703 C 196.482 69.201,204.191 68.680,205.920 62.910 C 206.537 60.848,206.543 51.572,205.928 49.518 C 204.973 46.329,199.738 42.959,198.600 44.800 M148.528 45.822 C 147.276 46.371,145.200 48.667,145.200 49.504 C 145.200 49.740,145.058 49.993,144.885 50.067 C 144.712 50.140,144.076 51.190,143.471 52.400 C 142.867 53.610,141.752 55.770,140.994 57.200 C 138.086 62.686,141.493 67.816,147.348 66.767 C 149.903 66.309,151.977 63.481,156.473 54.319 C 159.044 49.082,153.826 43.502,148.528 45.822 M203.146 46.284 C 205.973 48.356,206.824 61.600,204.338 64.856 C 202.192 67.667,198.307 67.816,195.783 65.184 L 194.600 63.950 194.485 56.675 C 194.383 50.198,194.452 49.250,195.116 48.031 C 196.616 45.277,200.591 44.413,203.146 46.284 M246.259 46.001 C 243.687 47.285,242.801 48.640,242.800 51.288 C 242.800 53.585,242.930 53.927,245.361 58.000 C 245.952 58.990,246.538 60.115,246.664 60.500 C 246.790 60.885,247.052 61.200,247.247 61.200 C 247.441 61.200,247.600 61.384,247.600 61.608 C 247.600 61.832,248.056 62.739,248.614 63.622 C 253.119 70.759,263.076 65.126,259.259 57.600 C 258.160 55.433,257.785 54.764,255.217 50.400 C 252.363 45.549,249.743 44.262,246.259 46.001 M154.581 47.237 C 157.550 49.844,157.403 51.576,153.600 58.792 C 149.984 65.653,146.911 67.816,143.499 65.900 C 139.979 63.923,139.565 60.699,142.217 55.898 C 142.975 54.524,144.092 52.423,144.698 51.228 C 147.401 45.901,151.277 44.336,154.581 47.237 M252.426 47.425 C 253.508 48.462,255.100 51.063,258.500 57.350 C 260.303 60.684,259.744 63.724,257.001 65.500 C 253.172 67.979,249.945 65.795,245.921 58.000 C 245.637 57.450,244.909 56.200,244.302 55.222 C 240.639 49.312,247.511 42.716,252.426 47.425 M26.726 156.212 C 5.724 161.961,6.729 196.944,28.008 200.806 C 29.466 201.070,88.361 201.171,201.408 201.103 L 372.600 201.000 374.716 200.129 C 383.845 196.369,388.400 189.124,388.400 178.362 C 388.400 167.161,383.320 159.620,373.634 156.442 L 371.068 155.600 199.834 155.650 C 61.920 155.690,28.235 155.799,26.726 156.212 M37.377 213.316 C 37.268 213.600,37.229 216.705,37.289 220.216 L 37.400 226.600 54.800 226.800 C 70.474 226.980,72.396 227.074,74.179 227.743 C 79.692 229.811,83.931 234.245,85.890 239.991 C 86.379 241.426,86.784 242.203,86.790 241.719 C 86.800 240.875,86.566 240.170,85.333 237.316 C 83.469 233.004,79.419 229.482,73.400 226.938 C 72.960 226.752,64.770 226.510,55.200 226.400 L 37.800 226.200 37.800 219.800 L 37.800 213.400 200.000 213.400 L 362.200 213.400 362.200 219.800 L 362.200 226.200 302.570 226.301 L 242.941 226.403 241.291 227.815 C 238.697 230.035,238.402 233.104,240.495 236.109 C 242.182 238.532,238.580 238.400,303.243 238.400 L 362.389 238.400 362.503 251.500 L 362.617 264.600 362.608 251.400 L 362.600 238.200 303.000 238.000 C 258.887 237.852,243.192 237.680,242.600 237.337 C 239.912 235.780,238.900 232.595,240.214 229.827 C 241.675 226.749,236.003 227.023,302.782 226.800 L 362.600 226.600 362.600 219.800 L 362.600 213.000 200.088 212.900 C 67.599 212.818,37.539 212.894,37.377 213.316 M124.200 226.892 C 117.569 229.140,112.303 234.649,110.524 241.200 C 110.156 242.557,110.029 252.459,110.012 281.400 C 109.987 321.988,110.033 320.939,108.125 324.007 C 103.456 331.514,92.256 330.713,88.442 322.600 C 87.605 320.820,87.600 320.574,87.577 283.304 C 87.564 262.677,87.403 245.080,87.219 244.200 C 87.032 243.306,86.910 259.817,86.942 281.600 L 87.000 320.600 87.920 322.600 C 92.244 331.994,105.064 331.927,109.424 322.488 L 110.400 320.376 110.414 282.088 C 110.431 238.248,110.249 240.742,113.833 235.137 C 116.167 231.487,119.919 228.715,124.341 227.373 C 127.865 226.303,219.323 226.549,220.844 227.632 C 224.633 230.329,223.677 236.363,219.267 237.588 C 218.311 237.854,202.135 237.996,172.854 237.998 L 127.908 238.000 126.054 239.010 C 123.922 240.171,122.503 242.021,122.213 244.014 L 122.012 245.400 122.469 244.000 C 123.164 241.871,124.662 240.085,126.496 239.199 C 128.120 238.415,128.984 238.400,173.426 238.400 C 223.402 238.400,220.531 238.548,222.576 235.867 C 224.591 233.225,223.583 228.448,220.707 227.014 C 219.207 226.265,126.394 226.148,124.200 226.892 M37.280 238.480 C 36.734 239.026,36.662 262.086,37.200 264.200 C 37.368 264.860,37.527 259.325,37.553 251.900 L 37.600 238.400 53.351 238.400 C 70.486 238.400,70.779 238.434,72.851 240.667 C 74.746 242.709,74.800 243.050,74.800 252.974 L 74.800 262.400 72.700 262.440 C 69.082 262.509,68.198 263.115,71.651 263.160 C 75.891 263.216,75.689 263.759,75.532 252.720 L 75.400 243.400 74.108 241.540 C 71.642 237.988,71.710 238.000,53.554 238.000 C 41.803 238.000,37.637 238.123,37.280 238.480 M22.440 260.705 C 9.204 267.415,7.392 290.391,19.357 299.808 C 21.199 301.258,22.169 301.803,26.200 303.648 C 27.441 304.217,72.570 304.745,74.678 304.216 L 75.600 303.985 75.600 289.641 C 75.600 277.403,75.512 275.225,75.002 274.802 C 74.328 274.242,69.026 274.576,67.229 275.291 C 64.729 276.287,62.793 277.366,60.800 278.874 C 45.884 290.164,26.860 281.826,25.721 263.500 C 25.448 259.105,25.504 259.153,22.440 260.705 M374.269 263.127 C 373.560 273.125,368.741 279.563,359.200 283.258 C 353.646 285.409,342.682 282.739,338.051 278.108 C 335.740 275.797,329.340 274.173,324.200 274.594 C 318.461 275.063,315.929 276.226,308.641 281.743 C 291.976 294.359,275.808 294.545,260.566 282.298 C 256.638 279.142,254.322 277.581,252.000 276.527 C 243.440 272.640,231.860 274.573,225.366 280.972 C 215.677 290.521,199.362 293.691,186.465 288.531 C 183.248 287.244,180.801 285.705,175.015 281.326 C 167.684 275.777,164.725 274.629,157.800 274.646 C 150.412 274.664,148.314 275.518,139.482 282.107 C 132.528 287.295,130.518 288.394,125.423 289.793 C 123.675 290.272,122.203 290.880,122.153 291.142 C 122.102 291.405,122.152 291.435,122.263 291.210 C 122.375 290.985,123.071 290.800,123.810 290.800 C 124.548 290.800,125.264 290.620,125.400 290.400 C 125.536 290.180,126.005 290.000,126.443 290.000 C 127.823 290.000,134.492 286.611,137.200 284.534 C 138.630 283.437,140.700 281.866,141.800 281.044 C 142.900 280.221,144.084 279.335,144.430 279.074 C 145.126 278.551,146.372 277.814,147.600 277.200 C 148.040 276.980,148.758 276.620,149.195 276.400 C 149.632 276.180,150.341 276.000,150.771 276.000 C 151.201 276.000,151.664 275.820,151.800 275.600 C 151.946 275.363,154.396 275.200,157.800 275.200 C 161.204 275.200,163.654 275.363,163.800 275.600 C 163.936 275.820,164.399 276.000,164.829 276.000 C 165.259 276.000,166.013 276.208,166.505 276.462 C 166.997 276.717,167.670 277.049,168.000 277.200 C 168.973 277.646,170.584 278.582,170.800 278.826 C 170.910 278.951,171.810 279.629,172.800 280.334 C 173.790 281.039,175.410 282.238,176.400 282.998 C 179.863 285.658,182.222 287.149,185.000 288.433 C 189.933 290.713,193.038 291.325,199.800 291.349 C 207.080 291.375,210.439 290.670,215.750 288.002 C 218.655 286.542,222.954 283.582,227.982 279.576 C 229.959 278.002,233.897 276.000,235.017 276.000 C 235.532 276.000,236.064 275.820,236.200 275.600 C 236.544 275.043,246.600 275.090,248.372 275.657 C 251.087 276.526,254.628 278.435,257.209 280.421 C 261.634 283.827,266.928 287.430,268.600 288.175 C 269.480 288.567,270.723 289.138,271.361 289.444 C 272.000 289.750,272.909 290.000,273.381 290.000 C 273.854 290.000,274.411 290.162,274.620 290.359 C 275.285 290.988,278.439 291.296,284.200 291.296 C 289.961 291.296,293.115 290.988,293.780 290.359 C 293.989 290.162,294.576 290.000,295.085 290.000 C 295.594 290.000,296.323 289.840,296.705 289.644 C 297.087 289.448,298.300 288.868,299.400 288.355 C 302.285 287.009,310.151 281.704,311.200 280.396 C 312.062 279.322,317.219 276.553,320.028 275.656 C 321.800 275.090,331.457 275.044,331.800 275.600 C 331.936 275.820,332.391 276.000,332.811 276.000 C 333.909 276.000,339.078 279.060,340.742 280.694 C 348.297 288.116,365.809 284.422,371.529 274.200 C 371.898 273.540,372.335 272.940,372.500 272.867 C 372.665 272.793,372.800 272.399,372.800 271.990 C 372.800 271.582,372.980 271.136,373.200 271.000 C 373.420 270.864,373.600 270.324,373.600 269.800 C 373.600 269.276,373.760 268.748,373.957 268.627 C 374.153 268.506,374.442 266.605,374.600 264.403 C 374.791 261.730,375.045 260.400,375.363 260.400 C 376.065 260.400,377.993 261.352,377.997 261.700 C 377.999 261.865,378.248 262.000,378.552 262.000 C 380.297 262.000,385.165 268.249,386.809 272.600 C 387.987 275.716,388.413 283.710,387.574 286.954 C 386.064 292.793,385.199 294.420,381.809 297.800 C 378.825 300.775,377.211 301.729,372.772 303.145 C 371.716 303.481,338.798 303.600,246.672 303.600 C 162.805 303.600,122.000 303.733,122.000 304.005 C 122.000 304.790,371.871 304.333,373.825 303.544 C 378.105 301.817,379.454 300.963,382.157 298.275 C 392.573 287.914,390.158 267.485,377.740 260.900 C 374.465 259.164,374.555 259.107,374.269 263.127 M24.808 261.700 C 24.894 275.915,36.926 286.576,50.258 284.248 C 54.209 283.559,60.919 280.234,62.800 278.034 C 63.247 277.511,66.526 276.000,67.214 276.000 C 67.620 276.000,68.064 275.820,68.200 275.600 C 68.336 275.380,69.877 275.200,71.624 275.200 L 74.800 275.200 74.800 289.400 L 74.800 303.600 51.409 303.600 L 28.018 303.600 25.440 302.630 C 14.291 298.433,8.859 284.858,13.265 272.200 C 15.469 265.866,24.782 257.395,24.808 261.700 M152.200 262.884 C 145.485 264.141,140.883 266.194,135.168 270.481 C 133.096 272.036,131.310 273.430,131.200 273.580 C 130.818 274.101,127.253 276.400,126.828 276.400 C 126.593 276.400,126.400 276.598,126.400 276.839 C 126.400 277.081,126.985 276.908,127.700 276.456 C 129.263 275.467,133.559 272.365,134.166 271.787 C 134.405 271.560,135.230 270.938,136.000 270.406 C 136.770 269.874,137.490 269.340,137.600 269.219 C 140.364 266.189,148.886 263.584,157.000 263.288 C 160.825 263.148,162.917 262.942,162.200 262.774 C 160.494 262.377,154.564 262.442,152.200 262.884 M237.600 262.800 C 236.995 262.994,238.730 263.120,242.000 263.120 C 245.270 263.120,247.005 262.994,246.400 262.800 C 245.850 262.624,243.870 262.480,242.000 262.480 C 240.130 262.480,238.150 262.624,237.600 262.800 M322.000 262.800 C 321.390 262.995,323.031 263.120,326.200 263.120 C 329.369 263.120,331.010 262.995,330.400 262.800 C 329.850 262.624,327.960 262.480,326.200 262.480 C 324.440 262.480,322.550 262.624,322.000 262.800 M65.200 263.600 C 64.461 264.077,65.524 264.077,67.400 263.600 L 68.600 263.295 67.200 263.253 C 66.430 263.231,65.530 263.387,65.200 263.600 M166.800 264.141 C 171.522 265.395,179.370 269.443,181.200 271.568 C 181.310 271.695,182.480 272.616,183.800 273.612 C 190.501 278.672,192.452 279.365,200.000 279.365 C 207.909 279.365,209.992 278.478,219.575 271.026 C 223.692 267.824,229.119 265.081,233.400 264.038 C 235.534 263.518,236.173 263.248,235.319 263.229 C 234.614 263.213,233.624 263.357,233.119 263.549 C 232.613 263.741,231.480 264.121,230.600 264.394 C 226.592 265.639,219.402 270.111,213.423 275.078 C 212.237 276.064,208.404 278.000,207.639 278.000 C 207.266 278.000,206.747 278.213,206.486 278.474 C 205.270 279.690,192.616 278.918,191.020 277.530 C 190.811 277.349,190.316 277.200,189.920 277.200 C 189.524 277.200,189.200 277.020,189.200 276.800 C 189.200 276.580,188.973 276.400,188.696 276.400 C 188.419 276.400,186.214 274.882,183.796 273.027 C 175.769 266.868,168.491 263.155,164.572 263.219 C 163.886 263.230,164.810 263.613,166.800 264.141 M248.200 263.431 C 255.782 265.201,259.046 266.795,266.226 272.234 C 279.904 282.596,288.577 282.555,302.516 272.062 C 308.201 267.783,310.667 266.334,315.000 264.727 C 316.578 264.142,316.717 264.029,315.657 264.191 C 312.060 264.743,305.845 268.534,297.895 275.025 C 297.508 275.341,297.086 275.600,296.957 275.600 C 296.829 275.600,296.246 275.929,295.662 276.330 C 295.078 276.732,293.970 277.290,293.200 277.571 C 292.430 277.851,291.380 278.281,290.866 278.526 C 288.523 279.643,276.995 278.900,275.420 277.530 C 275.211 277.349,274.796 277.200,274.498 277.200 C 273.998 277.200,269.914 274.600,268.438 273.342 C 261.920 267.786,254.181 263.781,249.200 263.387 C 248.210 263.308,247.760 263.328,248.200 263.431 M317.600 263.600 C 316.861 264.077,317.924 264.077,319.800 263.600 L 321.000 263.295 319.600 263.253 C 318.830 263.231,317.930 263.387,317.600 263.600 M334.400 263.995 C 336.050 264.400,337.471 264.661,337.557 264.575 C 337.644 264.489,337.464 264.350,337.157 264.266 C 336.851 264.182,335.957 263.908,335.172 263.656 C 334.386 263.405,333.216 263.213,332.572 263.229 C 331.862 263.247,332.582 263.549,334.400 263.995 M60.200 265.346 C 58.660 266.071,55.870 267.747,54.000 269.071 C 47.261 273.844,41.451 273.051,38.401 266.941 C 37.978 266.094,37.631 265.670,37.630 266.000 C 37.627 267.226,39.584 269.848,41.382 271.026 C 45.483 273.711,49.212 273.303,54.038 269.641 C 56.340 267.895,60.613 265.520,63.095 264.609 C 63.999 264.277,64.281 264.051,63.800 264.043 C 63.360 264.035,61.740 264.622,60.200 265.346 M340.601 266.311 C 342.141 267.130,344.601 268.689,346.068 269.776 C 351.069 273.481,354.482 273.670,358.996 270.488 C 360.958 269.105,363.804 264.285,362.000 265.400 C 361.780 265.536,361.600 265.964,361.600 266.352 C 361.600 269.000,357.053 271.807,352.800 271.784 C 349.592 271.766,349.344 271.665,345.400 268.741 C 343.210 267.118,338.988 264.794,338.259 264.811 C 338.007 264.816,339.060 265.491,340.601 266.311 M124.600 277.600 C 124.464 277.820,123.823 278.000,123.176 278.000 C 122.529 278.000,122.000 278.180,122.000 278.400 C 122.000 278.990,122.801 278.873,124.600 278.022 C 125.480 277.605,125.896 277.250,125.524 277.232 C 125.152 277.215,124.736 277.380,124.600 277.600 M37.214 316.374 C 36.745 317.251,36.728 321.910,37.183 325.200 C 37.423 326.938,37.499 326.245,37.544 321.900 L 37.600 316.400 56.149 316.400 L 74.698 316.400 74.927 318.300 C 75.407 322.284,75.673 323.829,76.031 324.700 C 76.234 325.195,76.601 326.095,76.847 326.700 C 77.092 327.305,77.485 328.160,77.720 328.600 C 77.955 329.040,78.414 329.929,78.741 330.577 C 80.757 334.570,87.917 339.679,93.400 341.037 C 106.902 344.380,120.857 334.001,121.953 319.800 L 122.200 316.600 242.300 316.499 L 362.400 316.399 362.457 321.899 L 362.513 327.400 362.884 323.318 C 363.093 321.012,363.107 318.489,362.915 317.518 L 362.575 315.800 242.306 315.699 L 122.036 315.599 121.840 316.899 C 121.731 317.615,121.546 319.322,121.428 320.694 C 120.196 335.012,104.620 344.651,90.849 339.618 C 82.230 336.468,76.510 328.830,75.745 319.450 C 75.600 317.662,75.282 316.068,75.040 315.906 C 73.866 315.122,37.644 315.570,37.214 316.374 M37.649 328.800 C 37.537 332.101,40.102 340.669,43.158 347.200 C 52.055 366.215,76.361 382.073,103.200 386.376 C 104.630 386.605,106.970 387.009,108.400 387.273 C 111.931 387.926,270.600 388.238,283.200 387.616 C 302.038 386.688,316.289 382.602,331.600 373.742 C 338.732 369.614,345.047 364.094,350.843 356.920 C 353.440 353.705,357.073 347.149,358.778 342.600 C 359.273 341.280,359.826 339.840,360.006 339.400 C 361.084 336.774,362.919 327.005,362.210 327.674 C 362.050 327.824,361.769 328.994,361.585 330.274 C 361.401 331.553,361.048 333.410,360.801 334.400 C 360.553 335.390,360.249 336.740,360.125 337.400 C 360.001 338.060,359.775 338.780,359.622 339.000 C 359.469 339.220,359.095 340.210,358.791 341.200 C 358.486 342.190,357.914 343.590,357.519 344.312 C 357.123 345.034,356.800 345.785,356.800 345.981 C 356.800 346.557,352.880 353.181,350.871 356.000 C 346.780 361.738,337.983 369.534,331.555 373.119 C 328.620 374.756,328.196 375.004,328.000 375.205 C 327.625 375.591,320.623 378.824,317.600 380.008 C 309.139 383.321,300.719 385.432,291.263 386.612 C 284.028 387.514,115.564 387.485,108.583 386.580 C 97.232 385.108,86.987 382.278,78.000 378.131 C 76.790 377.573,75.350 376.910,74.800 376.659 C 74.250 376.407,73.710 376.111,73.600 376.001 C 73.490 375.890,72.680 375.419,71.800 374.953 C 67.665 372.765,66.560 372.066,62.716 369.208 C 53.079 362.042,45.725 352.852,41.903 343.200 C 41.685 342.650,41.348 341.887,41.153 341.505 C 40.959 341.123,40.800 340.536,40.800 340.200 C 40.800 339.864,40.638 339.277,40.439 338.895 C 40.016 338.080,39.396 335.807,38.831 333.000 C 37.613 326.940,37.701 327.253,37.649 328.800 " stroke="none" fill="#9b542b" fill-rule="evenodd"></path><path id="path3" d="M37.776 213.718 C 37.667 214.002,37.628 216.927,37.689 220.218 L 37.800 226.200 55.200 226.400 C 64.770 226.510,72.960 226.752,73.400 226.938 C 80.482 229.931,84.155 233.586,86.325 239.800 C 87.482 243.112,87.600 247.160,87.600 283.537 C 87.600 320.594,87.605 320.819,88.442 322.600 C 92.256 330.713,103.456 331.514,108.125 324.007 C 110.033 320.939,109.987 321.988,110.012 281.400 C 110.029 252.459,110.156 242.557,110.524 241.200 C 112.331 234.545,117.739 228.965,124.428 226.851 C 126.904 226.069,219.125 226.224,220.707 227.014 C 223.583 228.448,224.591 233.225,222.576 235.867 C 220.531 238.548,223.402 238.400,173.426 238.400 C 122.609 238.400,126.167 238.192,123.888 241.299 C 122.113 243.719,122.000 244.959,122.000 261.946 L 122.000 278.000 123.176 278.000 C 123.823 278.000,124.464 277.820,124.600 277.600 C 124.736 277.380,125.197 277.200,125.624 277.200 C 126.051 277.200,126.400 277.020,126.400 276.800 C 126.400 276.580,126.593 276.400,126.828 276.400 C 127.253 276.400,130.818 274.101,131.200 273.580 C 132.597 271.676,142.061 265.794,145.800 264.506 C 159.049 259.943,169.921 262.381,183.796 273.027 C 186.214 274.882,188.419 276.400,188.696 276.400 C 188.973 276.400,189.200 276.580,189.200 276.800 C 189.200 277.020,189.524 277.200,189.920 277.200 C 190.316 277.200,190.811 277.349,191.020 277.530 C 192.616 278.918,205.270 279.690,206.486 278.474 C 206.747 278.213,207.266 278.000,207.639 278.000 C 208.404 278.000,212.237 276.064,213.423 275.078 C 227.496 263.387,237.345 260.525,252.200 263.810 C 255.545 264.550,263.828 269.412,268.438 273.342 C 269.914 274.600,273.998 277.200,274.498 277.200 C 274.796 277.200,275.211 277.349,275.420 277.530 C 276.995 278.900,288.523 279.643,290.866 278.526 C 291.380 278.281,292.430 277.851,293.200 277.571 C 293.970 277.290,295.078 276.732,295.662 276.330 C 296.246 275.929,296.829 275.600,296.957 275.600 C 297.086 275.600,297.508 275.341,297.895 275.025 C 312.261 263.296,322.063 260.297,335.000 263.674 C 338.278 264.529,342.156 266.396,345.088 268.530 C 349.489 271.733,349.568 271.766,352.800 271.784 C 357.053 271.807,361.600 269.000,361.600 266.352 C 361.600 265.964,361.780 265.536,362.000 265.400 C 362.254 265.243,362.400 260.263,362.400 251.776 L 362.400 238.400 303.249 238.400 C 238.580 238.400,242.182 238.532,240.495 236.109 C 238.401 233.104,238.697 230.036,241.293 227.813 L 242.944 226.400 295.772 226.399 C 324.827 226.398,351.705 226.280,355.500 226.136 L 362.400 225.874 362.400 219.800 L 362.400 213.726 355.500 213.464 C 341.084 212.917,37.991 213.159,37.776 213.718 M37.600 251.781 C 37.600 261.309,37.738 265.485,38.080 266.281 C 40.928 272.912,47.057 273.987,54.000 269.073 C 60.083 264.768,64.198 263.284,72.100 262.545 L 74.800 262.293 74.800 252.920 C 74.800 243.053,74.745 242.708,72.851 240.667 C 70.779 238.434,70.486 238.400,53.351 238.400 L 37.600 238.400 37.600 251.781 " stroke="none" fill="#d7e863" fill-rule="evenodd"></path><path id="path4" d="M22.200 261.335 C 15.399 265.010,11.708 272.721,12.116 282.400 C 12.564 293.047,16.711 299.344,25.440 302.630 L 28.018 303.600 51.409 303.600 L 74.800 303.600 74.800 289.400 L 74.800 275.200 71.624 275.200 C 69.877 275.200,68.336 275.380,68.200 275.600 C 68.064 275.820,67.620 276.000,67.214 276.000 C 66.526 276.000,63.247 277.511,62.800 278.034 C 60.919 280.234,54.209 283.559,50.258 284.248 C 36.926 286.576,24.894 275.915,24.808 261.700 C 24.799 260.182,24.430 260.130,22.200 261.335 M374.600 264.403 C 374.442 266.605,374.153 268.506,373.957 268.627 C 373.760 268.748,373.600 269.276,373.600 269.800 C 373.600 270.324,373.420 270.864,373.200 271.000 C 372.980 271.136,372.800 271.582,372.800 271.990 C 372.800 272.399,372.665 272.793,372.500 272.867 C 372.335 272.940,371.898 273.540,371.529 274.200 C 365.809 284.422,348.297 288.116,340.742 280.694 C 339.078 279.060,333.909 276.000,332.811 276.000 C 332.391 276.000,331.936 275.820,331.800 275.600 C 331.457 275.044,321.800 275.090,320.028 275.656 C 317.219 276.553,312.062 279.322,311.200 280.396 C 310.151 281.704,302.285 287.009,299.400 288.355 C 298.300 288.868,297.087 289.448,296.705 289.644 C 296.323 289.840,295.594 290.000,295.085 290.000 C 294.576 290.000,293.989 290.162,293.780 290.359 C 293.115 290.988,289.961 291.296,284.200 291.296 C 278.439 291.296,275.285 290.988,274.620 290.359 C 274.411 290.162,273.854 290.000,273.381 290.000 C 272.909 290.000,272.000 289.750,271.361 289.444 C 270.723 289.138,269.480 288.567,268.600 288.175 C 266.928 287.430,261.634 283.827,257.209 280.421 C 254.628 278.435,251.087 276.526,248.372 275.657 C 246.600 275.090,236.544 275.043,236.200 275.600 C 236.064 275.820,235.532 276.000,235.017 276.000 C 233.897 276.000,229.959 278.002,227.982 279.576 C 215.807 289.274,210.747 291.388,199.800 291.349 C 193.038 291.325,189.933 290.713,185.000 288.433 C 182.222 287.149,179.863 285.658,176.400 282.998 C 175.410 282.238,173.790 281.039,172.800 280.334 C 171.810 279.629,170.910 278.951,170.800 278.826 C 170.551 278.545,169.364 277.889,166.405 276.400 C 165.968 276.180,165.259 276.000,164.829 276.000 C 164.399 276.000,163.936 275.820,163.800 275.600 C 163.654 275.363,161.204 275.200,157.800 275.200 C 154.396 275.200,151.946 275.363,151.800 275.600 C 151.664 275.820,151.201 276.000,150.771 276.000 C 150.341 276.000,149.632 276.180,149.195 276.400 C 146.346 277.834,145.301 278.420,144.430 279.071 C 142.495 280.518,138.336 283.663,136.600 284.992 C 134.370 286.699,127.676 290.000,126.443 290.000 C 126.005 290.000,125.536 290.180,125.400 290.400 C 125.264 290.620,124.553 290.800,123.819 290.800 C 122.056 290.800,122.000 291.017,122.000 297.833 L 122.000 303.600 246.672 303.600 C 338.798 303.600,371.716 303.481,372.772 303.145 C 377.211 301.729,378.825 300.775,381.809 297.800 C 384.532 295.086,385.915 292.901,386.747 290.000 C 387.818 286.265,388.000 285.029,388.000 281.484 C 388.000 275.460,387.009 271.802,384.237 267.600 C 382.811 265.437,379.321 262.000,378.552 262.000 C 378.248 262.000,377.999 261.865,377.997 261.700 C 377.993 261.352,376.065 260.400,375.363 260.400 C 375.045 260.400,374.791 261.730,374.600 264.403 " stroke="none" fill="#e84242" fill-rule="evenodd"></path></g></svg>